<svg width="2943" height="1962" xmlns="http://www.w3.org/2000/svg" xmlns:xlink="http://www.w3.org/1999/xlink" xml:space="preserve" overflow="hidden"><defs><clipPath id="clip0"><rect x="728" y="256" width="2943" height="1962"/></clipPath><clipPath id="clip1"><rect x="728" y="256" width="2943" height="1962"/></clipPath></defs><g clip-path="url(#clip0)" transform="translate(-728 -256)"><g clip-path="url(#clip1)"><g><path d="M2200 310.139C2712.17 310.139 3127.36 725.332 3127.36 1237.5L2802.78 1237.5C2802.78 904.591 2532.91 634.715 2200 634.715Z" stroke="#FFFFFF" stroke-width="6.875" stroke-linecap="butt" stroke-linejoin="round" stroke-miterlimit="10" stroke-opacity="1" fill="#01DBFD" fill-rule="evenodd" fill-opacity="1"/></g><g><path d="M3127.36 1237.5C3127.36 1749.67 2712.17 2164.86 2200 2164.86L2200 1840.28C2532.91 1840.28 2802.78 1570.41 2802.78 1237.5Z" stroke="#FFFFFF" stroke-width="6.875" stroke-linecap="butt" stroke-linejoin="round" stroke-miterlimit="10" stroke-opacity="1" fill="#00B0F0" fill-rule="evenodd" fill-opacity="1"/></g><g><path d="M2200 2164.86C1687.83 2164.86 1272.64 1749.67 1272.64 1237.5L1597.22 1237.5C1597.22 1570.41 1867.09 1840.28 2200 1840.28Z" stroke="#FFFFFF" stroke-width="6.875" stroke-linecap="butt" stroke-linejoin="round" stroke-miterlimit="10" stroke-opacity="1" fill="#0E27E2" fill-rule="evenodd" fill-opacity="1"/></g><g><path d="M1272.64 1237.5C1272.64 725.332 1687.83 310.139 2200 310.139L2200 634.715C1867.09 634.715 1597.22 904.591 1597.22 1237.5Z" stroke="#FFFFFF" stroke-width="6.875" stroke-linecap="butt" stroke-linejoin="round" stroke-miterlimit="10" stroke-opacity="1" fill="#01FFEB" fill-rule="evenodd" fill-opacity="1"/></g><g><path d="M2180 314 2475 471.5 2180 629Z" fill="#01FFEB" fill-rule="evenodd" fill-opacity="1"/></g><g><path d="M0 295 157.5 0 315 295Z" fill="#00B0F0" fill-rule="evenodd" fill-opacity="1" transform="matrix(1.83697e-16 1 1 -1.83697e-16 1917 1845)"/></g><g><path d="M3123 1224 2965.5 1519 2808 1224Z" fill="#01DBFD" fill-rule="evenodd" fill-opacity="1"/></g><g><path d="M0 295 157.5 0 315 295Z" fill="#0E27E2" fill-rule="evenodd" fill-opacity="1" transform="matrix(-1 0 0 1 1593 954)"/></g><path d="M1449.58 806.251C1451.56 802.593 1454.15 800.253 1457.36 799.233 1460.56 798.212 1463.54 798.446 1466.28 799.934 1467.02 800.335 1468.69 801.515 1471.29 803.473 1473.89 805.431 1476.99 807.732 1480.59 810.374 1484.19 813.017 1488.21 816.021 1492.66 819.387 1497.1 822.754 1501.63 826.024 1506.22 829.198 1510.82 832.371 1515.31 835.397 1519.7 838.276 1524.08 841.154 1528.28 843.681 1532.3 845.857 1536.43 848.093 1539.81 849.684 1542.45 850.628 1545.09 851.573 1547.17 851.975 1548.7 851.834 1550.23 851.694 1551.43 851.243 1552.29 850.483 1553.16 849.722 1554.03 848.531 1554.91 846.907 1557.09 842.882 1558.41 838.857 1558.86 834.832 1559.32 830.807 1559.42 827.122 1559.18 823.778 1558.93 820.433 1558.57 817.325 1558.09 814.453 1557.62 811.581 1557.77 809.425 1558.55 807.987 1559.75 805.77 1561.66 804.308 1564.28 803.602 1566.9 802.897 1570.57 803.824 1575.3 806.385 1580 808.933 1584.42 811.555 1588.55 814.253 1592.69 816.95 1596.14 819.925 1598.9 823.176 1601.66 826.427 1603.67 830.263 1604.93 834.684 1606.18 839.104 1605.98 845.137 1604.34 852.781 1603.97 859.812 1602.45 866.538 1599.77 872.96 1597.08 879.381 1594.04 885.741 1590.62 892.039 1588.86 895.294 1586.78 898.649 1584.38 902.102 1581.98 905.556 1579.36 908.735 1576.52 911.639 1573.67 914.543 1570.54 916.963 1567.13 918.898 1563.71 920.833 1560.44 921.716 1557.3 921.548 1554.18 921.443 1550.15 920.537 1545.22 918.828 1540.29 917.12 1534.72 914.933 1528.5 912.269 1522.28 909.605 1515.84 906.644 1509.18 903.386 1502.52 900.129 1496.21 896.887 1490.25 893.66 1474.33 885.029 1461.82 877.088 1452.74 869.834 1443.66 862.581 1439.11 855.713 1439.09 849.23 1439.07 845.726 1439.41 841.823 1440.12 837.52 1440.83 833.218 1441.73 829.082 1442.82 825.112 1443.92 821.143 1445.07 817.467 1446.28 814.084 1447.48 810.701 1448.58 808.09 1449.58 806.251Z" fill="#FFFFFF" fill-rule="evenodd" fill-opacity="1"/><text fill="#000000" fill-opacity="0" font-family="Arial,Arial_MSFontService,sans-serif" font-size="122.959" direction="ltr" writing-mode="lr-tb" x="1439.09" y="906.199">L</text><path d="M1613.57 716.056C1611.94 717.711 1610.55 719.629 1609.4 721.809 1608.26 723.989 1607.46 726.077 1607 728.073 1606.54 730.068 1606.44 731.846 1606.72 733.406 1606.99 734.966 1607.49 736.105 1608.22 736.823 1608.48 737.086 1608.79 737.235 1609.13 737.271 1609.48 737.306 1609.82 737.152 1610.16 736.809 1611.57 735.38 1612.99 733.43 1614.43 730.961 1615.86 728.491 1617.14 726.019 1618.25 723.547 1619.36 721.074 1620.08 718.968 1620.42 717.229 1620.75 715.49 1620.84 714.542 1620.68 714.385 1620.01 713.722 1619.02 713.468 1617.7 713.624 1616.39 713.779 1615.01 714.59 1613.57 716.056ZM1587.49 692.931C1593.22 687.115 1599.19 682.653 1605.4 679.547 1611.62 676.44 1617.69 674.667 1623.64 674.226 1629.59 673.786 1635.3 674.57 1640.78 676.578 1646.25 678.586 1651.14 681.711 1655.45 685.952 1659.27 689.717 1661.17 694.033 1661.14 698.898 1661.12 703.764 1660.09 708.648 1658.04 713.551 1656 718.453 1653.5 723.211 1650.55 727.822 1647.59 732.434 1644.78 736.752 1642.1 740.777 1639.42 744.802 1637.46 748.044 1636.21 750.504 1634.95 752.963 1634.52 754.383 1634.91 754.763 1636.02 755.859 1637.71 756.273 1639.99 756.003 1642.27 755.733 1645.31 753.665 1649.12 749.8 1651.57 747.309 1653.38 744.571 1654.55 741.586 1655.72 738.601 1656.59 735.628 1657.16 732.667 1657.73 729.706 1658.27 726.904 1658.78 724.262 1659.29 721.62 1660.2 719.626 1661.53 718.278 1663.5 716.592 1665.9 715.501 1668.75 715.005 1671.6 714.509 1674.58 714.365 1677.7 714.572 1680.81 714.779 1683.82 715.373 1686.72 716.354 1689.61 717.335 1691.96 718.711 1693.76 720.484 1695.89 722.589 1697.16 725.964 1697.55 730.609 1697.94 735.254 1697.43 740.377 1696.02 745.977 1694.61 751.577 1692.26 757.491 1688.98 763.719 1685.71 769.946 1681.29 775.874 1675.75 781.504 1669.52 787.823 1662.7 792.789 1655.27 796.403 1647.85 800.017 1640.19 802.079 1632.29 802.587 1624.4 803.096 1616.63 801.924 1609 799.07 1601.37 796.217 1594.21 791.496 1587.52 784.908 1580.79 778.276 1575.79 771.042 1572.52 763.205 1569.25 755.367 1567.62 747.319 1567.61 739.059 1567.61 730.798 1569.28 722.703 1572.65 714.772 1576.01 706.841 1580.96 699.561 1587.49 692.931Z" fill="#FFFFFF" fill-rule="evenodd" fill-opacity="1"/><text fill="#000000" fill-opacity="0" font-family="Arial,Arial_MSFontService,sans-serif" font-size="128.595" direction="ltr" writing-mode="lr-tb" x="1567.61" y="786.628">e</text><path d="M1742.06 655.688C1740.64 656.797 1739.29 658.491 1738 660.772 1736.71 663.052 1735.72 665.396 1735.03 667.805 1734.34 670.213 1733.96 672.425 1733.9 674.44 1733.84 676.456 1734.12 677.847 1734.72 678.615 1736.51 680.897 1738.67 681.049 1741.19 679.071 1742.05 678.391 1742.89 677.072 1743.68 675.114 1744.48 673.156 1745.08 670.94 1745.49 668.467 1745.89 665.994 1746.02 663.77 1745.89 661.797 1745.76 659.823 1745.33 658.38 1744.61 657.466 1743.91 656.568 1743.35 656.014 1742.94 655.801 1742.52 655.589 1742.23 655.552 1742.06 655.688ZM1698.9 594.365C1703.88 590.464 1709.21 587.403 1714.89 585.183 1720.57 582.963 1726.29 581.855 1732.03 581.86 1737.77 581.865 1743.28 583.02 1748.58 585.326 1753.87 587.631 1758.49 591.301 1762.44 596.335 1766.22 601.155 1769.39 605.524 1771.96 609.442 1774.52 613.361 1776.64 616.813 1778.31 619.801 1779.99 622.788 1781.43 625.355 1782.64 627.502 1783.86 629.649 1785.15 631.593 1786.51 633.333 1788.88 636.353 1790.89 638.5 1792.53 639.775 1794.17 641.05 1795.59 641.955 1796.79 642.49 1797.99 643.025 1799.15 643.423 1800.26 643.683 1801.37 643.944 1802.42 644.709 1803.42 645.978 1804.84 647.794 1805.37 650.43 1805.02 653.884 1804.66 657.339 1803.77 660.955 1802.34 664.733 1800.91 668.512 1799.07 672.192 1796.83 675.774 1794.58 679.356 1792.08 682.23 1789.31 684.397 1786.96 686.243 1784.65 687.377 1782.39 687.799 1780.13 688.22 1778.13 688.327 1776.4 688.118 1774.67 687.909 1773.35 687.686 1772.42 687.449 1771.49 687.212 1771.1 687.043 1771.23 686.942 1770.93 687.177 1770.36 688.184 1769.51 689.964 1768.67 691.743 1767.43 693.958 1765.8 696.609 1764.16 699.261 1762.15 702.121 1759.77 705.191 1757.38 708.26 1754.46 711.149 1751.01 713.858 1741.13 721.606 1731.75 725.06 1722.87 724.22 1713.99 723.38 1706.79 719.445 1701.28 712.414 1696.43 706.241 1693.73 699.993 1693.18 693.67 1692.62 687.347 1693.36 681.212 1695.38 675.265 1697.41 669.319 1700.12 663.778 1703.51 658.643 1706.9 653.507 1710.11 648.846 1713.13 644.659 1716.16 640.471 1718.42 637.036 1719.92 634.353 1721.41 631.669 1721.78 629.832 1721 628.841 1720.68 628.441 1720.08 628.219 1719.19 628.176 1718.29 628.133 1717.12 628.683 1715.66 629.827 1711.93 632.75 1708.92 636.141 1706.62 639.998 1704.32 643.854 1702.45 647.569 1701.01 651.141 1699.57 654.713 1698.25 658.165 1697.05 661.496 1695.85 664.828 1694.35 667.204 1692.54 668.625 1689.26 671.197 1685.91 671.335 1682.49 669.039 1679.07 666.743 1676.1 663.993 1673.59 660.789 1671.88 658.611 1670.41 656.474 1669.17 654.377 1667.94 652.28 1667.23 650.383 1667.05 648.688 1666.3 645.376 1666.42 641.516 1667.42 637.11 1668.41 632.703 1670.26 628.147 1672.95 623.442 1675.64 618.737 1679.18 613.858 1683.57 608.806 1687.96 603.754 1693.07 598.941 1698.9 594.365Z" fill="#FFFFFF" fill-rule="evenodd" fill-opacity="1"/><text fill="#000000" fill-opacity="0" font-family="Arial,Arial_MSFontService,sans-serif" font-size="142.483" direction="ltr" writing-mode="lr-tb" x="1666.56" y="706.533">a</text><path d="M1830.07 503.805C1833.87 501.359 1837.93 499.977 1842.25 499.659 1846.56 499.341 1850.67 499.724 1854.56 500.807 1858.46 501.89 1862.03 503.523 1865.28 505.705 1868.53 507.887 1870.95 510.22 1872.54 512.704 1874.59 515.887 1875.69 519.601 1875.85 523.846 1876.01 528.092 1875.36 532.368 1873.9 536.675 1872.44 540.981 1870.32 545.077 1867.56 548.963 1864.79 552.848 1861.48 556.031 1857.62 558.51 1851.97 562.143 1847.49 561.391 1844.19 556.255 1842.52 553.656 1841 551.992 1839.62 551.262 1838.25 550.532 1836.99 550.541 1835.82 551.288 1833.9 552.526 1833.88 554.622 1835.78 557.576 1838.37 561.597 1841.02 565.247 1843.73 568.525 1846.45 571.803 1849.33 575.181 1852.38 578.659 1855.43 582.136 1858.58 585.874 1861.81 589.871 1865.05 593.869 1868.17 598.206 1871.17 602.883 1874.97 608.786 1876.4 614.441 1875.48 619.849 1874.55 625.257 1871.3 629.756 1865.71 633.346 1861.47 636.075 1856.99 638.391 1852.27 640.294 1847.54 642.197 1843.07 643.518 1838.85 644.258 1834.64 644.999 1830.71 645.07 1827.09 644.474 1823.47 643.877 1820.81 642.26 1819.11 639.624 1817.03 636.379 1815.01 632.613 1813.07 628.325 1811.13 624.037 1809.14 620.304 1807.1 617.128 1801.13 607.846 1796.08 600.896 1791.94 596.277 1787.81 591.658 1784.36 588.302 1781.61 586.207 1778.85 584.112 1776.54 582.571 1774.67 581.585 1772.8 580.599 1771.08 578.9 1769.53 576.486 1767.71 573.651 1767.61 569.888 1769.23 565.199 1770.85 560.51 1773.11 555.824 1776.01 551.142 1778.91 546.46 1782.11 542.147 1785.61 538.204 1789.1 534.26 1792.03 531.532 1794.38 530.019 1796.72 528.512 1798.93 527.815 1801 527.928 1803.07 528.041 1804.91 528.36 1806.51 528.885 1808.12 529.41 1809.3 529.832 1810.07 530.15 1810.83 530.469 1811.25 530.604 1811.33 530.554 1811.54 530.423 1812.01 529.425 1812.77 527.56 1813.52 525.695 1814.63 523.349 1816.1 520.52 1817.58 517.692 1819.41 514.756 1821.59 511.711 1823.78 508.667 1826.61 506.032 1830.07 503.805Z" fill="#FFFFFF" fill-rule="evenodd" fill-opacity="1"/><text fill="#000000" fill-opacity="0" font-family="Arial,Arial_MSFontService,sans-serif" font-size="145.322" direction="ltr" writing-mode="lr-tb" x="1768.08" y="626.708">r</text><path d="M1962.59 432.505C1972.56 427.326 1982.01 425.603 1990.94 427.335 1999.88 429.067 2006.59 434.265 2011.09 442.927 2013.26 447.102 2014.89 450.919 2015.99 454.379 2017.08 457.839 2017.95 461.114 2018.59 464.206 2019.23 467.297 2019.89 470.139 2020.58 472.732 2021.27 475.324 2022.33 477.991 2023.75 480.733 2026.2 485.452 2028.35 489.106 2030.21 491.695 2032.06 494.285 2033.63 496.281 2034.91 497.684 2036.2 499.087 2037.42 500.345 2038.56 501.458 2039.71 502.572 2040.71 503.937 2041.55 505.555 2043 508.351 2043.04 511.517 2041.66 515.053 2040.28 518.588 2038.17 522.135 2035.32 525.694 2032.47 529.252 2029.05 532.645 2025.05 535.873 2021.05 539.101 2016.88 541.843 2012.53 544.1 2006.92 547.013 2002.14 547.778 1998.19 546.394 1994.24 545.009 1991.1 542.079 1988.78 537.601 1987.03 534.231 1985.5 530.337 1984.19 525.92 1982.88 521.503 1981.6 517.006 1980.35 512.43 1979.11 507.854 1977.87 503.524 1976.65 499.44 1975.42 495.357 1973.92 491.603 1972.14 488.18 1970.27 484.564 1968.66 482.403 1967.31 481.697 1965.97 480.991 1964.71 480.943 1963.54 481.552 1962.41 482.139 1961.36 483.221 1960.39 484.798 1959.42 486.376 1958.72 488.326 1958.29 490.648 1957.87 492.971 1957.84 495.484 1958.23 498.186 1958.61 500.889 1959.55 503.687 1961.06 506.581 1964.99 514.156 1968.5 521.271 1971.59 527.927 1974.69 534.582 1976.76 540.408 1977.81 545.404 1978.86 550.399 1978.72 554.771 1977.41 558.518 1976.09 562.266 1973.27 565.261 1968.95 567.505 1965.37 569.367 1961.44 570.875 1957.18 572.029 1952.91 573.183 1948.74 573.917 1944.64 574.231 1940.55 574.545 1936.74 574.24 1933.2 573.315 1929.67 572.391 1927.21 570.606 1925.84 567.96 1924.92 566.188 1924.22 564.425 1923.74 562.671 1923.26 560.916 1922.6 558.805 1921.76 556.335 1920.92 553.866 1919.88 551.032 1918.63 547.832 1917.39 544.633 1915.6 540.788 1913.27 536.298 1911.4 532.699 1909.22 529.375 1906.74 526.325 1904.26 523.276 1901.72 520.292 1899.15 517.375 1896.57 514.458 1894.13 511.719 1891.84 509.157 1889.55 506.595 1887.71 503.967 1886.31 501.272 1885 498.761 1885.01 495.62 1886.33 491.849 1887.65 488.078 1889.62 484.367 1892.23 480.715 1894.84 477.063 1898 473.502 1901.72 470.031 1905.44 466.561 1909.29 463.795 1913.26 461.734 1916.18 460.215 1918.95 459.474 1921.56 459.513 1924.17 459.552 1926.54 460.035 1928.67 460.963 1930.8 461.89 1932.72 463.091 1934.43 464.565 1935.28 465.302 1935.9 465.925 1936.28 466.433L1936.3 466.461 1936.27 465.333C1936.38 464.272 1936.74 462.909 1937.36 461.246 1938.59 457.919 1940.36 454.543 1942.67 451.118 1944.98 447.693 1947.78 444.305 1951.07 440.952 1954.36 437.6 1958.2 434.784 1962.59 432.505Z" fill="#FFFFFF" fill-rule="evenodd" fill-opacity="1"/><text fill="#000000" fill-opacity="0" font-family="Arial,Arial_MSFontService,sans-serif" font-size="147.667" direction="ltr" writing-mode="lr-tb" x="1885.34" y="555.892">n</text><path d="M2623.2 558.408C2621.22 557.869 2619.57 557.887 2618.27 558.463 2616.96 559.039 2615.94 560.669 2615.21 563.352 2613.84 568.361 2612.41 573.643 2610.89 579.201 2609.38 584.758 2608.19 589.254 2607.32 592.689 2606.45 596.123 2605.69 599.195 2605.03 601.904 2604.36 604.613 2604 606.336 2603.92 607.072 2603.61 609.269 2603.69 610.686 2604.16 611.322 2604.64 611.959 2605.34 612.406 2606.29 612.664 2607.64 613.03 2609.42 612.71 2611.64 611.703 2613.87 610.697 2616.21 608.986 2618.67 606.573 2621.13 604.159 2623.41 601.186 2625.52 597.655 2627.62 594.123 2629.25 590.239 2630.4 586.002 2631.54 581.826 2632.04 578.101 2631.9 574.824 2631.76 571.548 2631.26 568.722 2630.41 566.348 2629.56 563.973 2628.48 562.149 2627.19 560.875 2625.89 559.601 2624.56 558.779 2623.2 558.408ZM2629.75 502.992C2640.67 505.966 2650.65 510.152 2659.69 515.549 2668.74 520.946 2676.07 527.774 2681.7 536.032 2687.33 544.289 2690.87 553.932 2692.33 564.959 2693.79 575.987 2692.61 588.536 2688.77 602.608 2684.89 616.865 2679.55 628.536 2672.75 637.623 2665.95 646.709 2658.03 653.582 2648.98 658.24 2639.94 662.898 2630.18 665.42 2619.71 665.807 2609.23 666.194 2598.32 664.845 2586.99 661.758 2580.67 660.038 2574.93 657.953 2569.75 655.5 2564.57 653.048 2560.04 650.437 2556.15 647.667 2552.26 644.897 2549.1 642.048 2546.67 639.12 2544.24 636.192 2542.93 633.778 2542.74 631.878 2541.98 625.299 2542.33 616.975 2543.8 606.906 2545.26 596.836 2547.84 585.005 2551.54 571.412 2553.4 564.594 2555.38 557.916 2557.48 551.378 2559.58 544.839 2561.62 538.801 2563.61 533.263 2565.6 527.725 2567.44 522.992 2569.14 519.063 2570.83 515.134 2572.28 512.279 2573.46 510.496 2574.8 508.495 2575.86 506.931 2576.67 505.803 2577.47 504.675 2578.46 503.663 2579.64 502.766 2580.82 501.869 2582.21 501.143 2583.79 500.589 2585.38 500.034 2587.37 499.635 2589.76 499.392 2594.17 498.943 2599.6 498.796 2606.06 498.949 2612.51 499.102 2620.41 500.449 2629.75 502.992Z" fill="#FFFFFF" fill-rule="evenodd" fill-opacity="1"/><text fill="#000000" fill-opacity="0" font-family="Arial,Arial_MSFontService,sans-serif" font-size="166.982" direction="ltr" writing-mode="lr-tb" x="2542.35" y="644.999">D</text><path d="M2776.9 690.539C2775.38 688.785 2773.57 687.252 2771.49 685.941 2769.4 684.631 2767.38 683.669 2765.43 683.056 2763.48 682.444 2761.71 682.212 2760.13 682.362 2758.56 682.511 2757.38 682.921 2756.61 683.593 2756.33 683.838 2756.16 684.132 2756.09 684.473 2756.03 684.814 2756.16 685.167 2756.47 685.531 2757.79 687.045 2759.62 688.615 2761.97 690.24 2764.33 691.864 2766.69 693.326 2769.07 694.625 2771.45 695.923 2773.49 696.807 2775.2 697.276 2776.91 697.746 2777.85 697.907 2778.02 697.76 2778.73 697.14 2779.06 696.171 2779 694.85 2778.95 693.53 2778.25 692.093 2776.9 690.539ZM2801.98 666.331C2807.33 672.495 2811.32 678.795 2813.93 685.229 2816.55 691.664 2817.84 697.862 2817.82 703.824 2817.8 709.787 2816.58 715.421 2814.15 720.726 2811.72 726.031 2808.23 730.665 2803.67 734.627 2799.62 738.145 2795.17 739.703 2790.32 739.302 2785.47 738.901 2780.68 737.492 2775.95 735.075 2771.22 732.659 2766.67 729.798 2762.3 726.495 2757.93 723.191 2753.85 720.049 2750.04 717.068 2746.24 714.088 2743.16 711.877 2740.8 710.438 2738.45 708.998 2737.06 708.455 2736.66 708.81 2735.48 709.835 2734.93 711.493 2735.03 713.784 2735.12 716.075 2736.94 719.269 2740.5 723.366 2742.79 726.006 2745.38 728.024 2748.27 729.42 2751.16 730.816 2754.05 731.913 2756.96 732.711 2759.87 733.509 2762.62 734.264 2765.21 734.976 2767.81 735.688 2769.73 736.758 2770.97 738.186 2772.49 740.277 2773.4 742.76 2773.67 745.636 2773.94 748.512 2773.86 751.497 2773.41 754.589 2772.96 757.681 2772.13 760.633 2770.93 763.443 2769.73 766.253 2768.18 768.487 2766.27 770.143 2764 772.109 2760.54 773.108 2755.88 773.14 2751.22 773.171 2746.15 772.265 2740.68 770.423 2735.2 768.58 2729.49 765.783 2723.53 762.032 2717.58 758.282 2712.01 753.423 2706.83 747.456 2701.01 740.759 2696.59 733.569 2693.56 725.887 2690.53 718.206 2689.07 710.409 2689.18 702.498 2689.28 694.587 2691.05 686.937 2694.49 679.547 2697.93 672.158 2703.19 665.386 2710.28 659.23 2717.41 653.034 2725.01 648.611 2733.08 645.96 2741.14 643.309 2749.29 642.301 2757.53 642.936 2765.77 643.571 2773.71 645.872 2781.35 649.839 2789 653.806 2795.87 659.303 2801.98 666.331Z" fill="#FFFFFF" fill-rule="evenodd" fill-opacity="1"/><text fill="#000000" fill-opacity="0" font-family="Arial,Arial_MSFontService,sans-serif" font-size="130.389" direction="ltr" writing-mode="lr-tb" x="2689.17" y="756.842">e</text><path d="M2884.56 779.185C2888.59 785.566 2891.38 791.618 2892.93 797.341 2894.47 803.064 2895.2 808.195 2895.11 812.735 2895.02 817.275 2894.3 821.179 2892.95 824.447 2891.6 827.716 2890.06 829.897 2888.33 830.991 2886.23 832.317 2883.54 833.127 2880.25 833.421 2876.96 833.715 2873.66 833.69 2870.35 833.346 2867.03 833.002 2863.9 832.277 2860.94 831.17 2857.98 830.063 2855.88 828.525 2854.64 826.558 2853.45 824.685 2853.17 822.515 2853.79 820.048 2854.41 817.58 2855.06 815.052 2855.76 812.461 2856.45 809.871 2856.92 807.486 2857.17 805.306 2857.43 803.127 2857.05 801.243 2856.05 799.654 2855.5 798.787 2854.82 798.279 2854.02 798.13 2853.21 797.981 2852.48 798.116 2851.82 798.536 2850.29 799.504 2849.45 801.255 2849.3 803.79 2849.15 806.326 2849.34 809.564 2849.87 813.505 2850.4 817.445 2850.92 821.794 2851.44 826.549 2851.95 831.304 2851.95 836.112 2851.43 840.973 2850.92 845.834 2849.53 850.521 2847.27 855.035 2845.01 859.55 2841.24 863.482 2835.94 866.831 2825.77 873.266 2815.17 874.571 2804.16 870.746 2793.15 866.921 2782.97 857.619 2773.62 842.839 2768.65 834.976 2765.22 827.645 2763.34 820.845 2761.45 814.045 2760.51 807.956 2760.51 802.579 2760.5 797.201 2761.3 792.608 2762.89 788.799 2764.48 784.991 2766.46 782.339 2768.83 780.844 2771.43 779.196 2774.53 778.247 2778.12 777.996 2781.7 777.745 2785.32 778 2788.95 778.76 2792.59 779.521 2795.96 780.68 2799.06 782.24 2802.15 783.799 2804.39 785.663 2805.76 787.833 2807.01 789.815 2807.34 792.157 2806.73 794.861 2806.12 797.565 2805.49 800.376 2804.83 803.295 2804.17 806.214 2803.82 809.106 2803.77 811.97 2803.72 814.834 2804.46 817.485 2806 819.922 2806.5 820.702 2807.26 821.172 2808.28 821.333 2809.31 821.493 2810.26 821.297 2811.13 820.744 2812.25 820.036 2812.85 818.498 2812.92 816.133 2813 813.767 2812.8 810.716 2812.32 806.981 2811.84 803.246 2811.33 799.056 2810.79 794.411 2810.25 789.766 2810.31 785.097 2810.96 780.405 2811.61 775.712 2813.08 771.15 2815.37 766.717 2817.67 762.285 2821.46 758.395 2826.75 755.048 2831.29 752.177 2836.1 750.633 2841.18 750.417 2846.25 750.201 2851.34 751.193 2856.45 753.394 2861.56 755.594 2866.52 758.852 2871.32 763.166 2876.12 767.481 2880.53 772.82 2884.56 779.185Z" fill="#FFFFFF" fill-rule="evenodd" fill-opacity="1"/><text fill="#000000" fill-opacity="0" font-family="Arial,Arial_MSFontService,sans-serif" font-size="122.497" direction="ltr" writing-mode="lr-tb" x="2760.51" y="857.573">s</text><path d="M2937.5 880.039C2939.89 884.572 2940.72 888.859 2940.01 892.899 2939.29 896.939 2936.77 900.097 2932.44 902.374 2930.53 903.383 2927.91 904.402 2924.6 905.43 2921.28 906.459 2917.64 907.597 2913.68 908.845 2909.71 910.093 2905.37 911.614 2900.67 913.409 2895.96 915.204 2890.97 917.489 2885.7 920.264 2878.32 924.152 2871.78 928.461 2866.07 933.19 2860.37 937.919 2854.93 941.649 2849.74 944.379 2846.08 946.31 2842.02 946.551 2837.55 945.103 2833.09 943.655 2829.19 939.758 2825.85 933.411 2823.4 928.755 2821.53 924.108 2820.24 919.468 2818.94 914.829 2818.2 910.489 2818.01 906.45 2817.81 902.41 2818.21 898.799 2819.19 895.617 2820.18 892.435 2821.98 890.155 2824.6 888.776 2826.68 887.68 2829.33 886.586 2832.55 885.493 2835.77 884.401 2839.34 883.22 2843.26 881.95 2847.17 880.68 2851.12 879.289 2855.11 877.776 2859.1 876.263 2862.92 874.546 2866.56 872.626 2870.2 870.709 2873.24 868.779 2875.68 866.838 2878.11 864.897 2880.25 863.046 2882.09 861.284 2883.93 859.522 2885.89 857.698 2887.97 855.811 2890.05 853.924 2892.25 852.366 2894.59 851.137 2897.76 849.464 2901.34 849.244 2905.32 850.477 2909.29 851.709 2913.26 853.768 2917.22 856.653 2921.18 859.538 2924.96 863.036 2928.56 867.149 2932.16 871.261 2935.14 875.558 2937.5 880.039ZM2983.6 836.349C2985.52 840.005 2986.65 843.751 2986.99 847.588 2987.33 851.424 2987 855.159 2986 858.79 2985 862.422 2983.33 865.729 2981.01 868.714 2978.69 871.698 2975.74 874.137 2972.14 876.029 2968.48 877.96 2964.72 879.04 2960.87 879.271 2957.02 879.502 2953.36 878.989 2949.9 877.734 2946.44 876.478 2943.26 874.607 2940.37 872.123 2937.48 869.638 2935.07 866.571 2933.15 862.922 2931.21 859.252 2930.04 855.53 2929.63 851.757 2929.22 847.984 2929.5 844.327 2930.48 840.787 2931.45 837.246 2933.1 833.977 2935.44 830.98 2937.77 827.983 2940.79 825.507 2944.5 823.552 2948.14 821.636 2951.83 820.566 2955.57 820.342 2959.3 820.117 2962.94 820.582 2966.47 821.737 2970 822.892 2973.25 824.697 2976.23 827.151 2979.2 829.604 2981.66 832.67 2983.6 836.349Z" fill="#FFFFFF" fill-rule="evenodd" fill-opacity="1"/><text fill="#000000" fill-opacity="0" font-family="Arial,Arial_MSFontService,sans-serif" font-size="125.747" direction="ltr" writing-mode="lr-tb" x="2817.96" y="930.316">i</text><path d="M2839.71 1023.87C2839.3 1022.96 2838.76 1022.38 2838.07 1022.15 2837.39 1021.91 2836.76 1021.92 2836.2 1022.16 2834.91 1022.73 2833.91 1023.66 2833.23 1024.95 2832.54 1026.24 2832.13 1027.79 2831.98 1029.61 2831.83 1031.43 2831.95 1033.38 2832.34 1035.47 2832.73 1037.57 2833.36 1039.59 2834.22 1041.55 2835.69 1044.9 2837.76 1045.99 2840.41 1044.83 2841.2 1044.48 2841.83 1043.7 2842.3 1042.49 2842.77 1041.28 2843.01 1039.69 2843.02 1037.73 2843.03 1035.76 2842.72 1033.52 2842.11 1031.02 2841.5 1028.51 2840.7 1026.13 2839.71 1023.87ZM2946.1 985.357C2945.22 983.352 2943.44 981.993 2940.76 981.28 2938.09 980.566 2935.31 980.845 2932.42 982.116 2929.12 983.567 2926.9 985.223 2925.77 987.086 2924.64 988.949 2924.52 990.902 2925.42 992.946 2926.32 994.986 2928.1 996.311 2930.77 996.922 2933.44 997.532 2936.33 997.156 2939.43 995.793 2945.72 993.028 2947.94 989.549 2946.1 985.357ZM3022.43 996.826C3025.28 1003.3 3025.56 1009.49 3023.26 1015.39 3020.97 1021.29 3016.86 1025.54 3010.94 1028.15 3006.87 1029.93 3002.94 1030.77 2999.13 1030.65 2995.32 1030.54 2991.86 1030.07 2988.75 1029.24 2985.64 1028.41 2983.25 1027.69 2981.56 1027.08 2979.87 1026.47 2978.99 1026.18 2978.91 1026.22 2977.81 1028 2976.16 1030.11 2973.94 1032.55 2972.25 1034.48 2970.03 1036.52 2967.29 1038.67 2964.55 1040.81 2961.29 1042.71 2957.53 1044.37 2949.49 1047.9 2941.74 1049.38 2934.27 1048.79 2926.81 1048.2 2919.88 1046 2913.51 1042.19 2907.13 1038.38 2901.39 1033.19 2896.29 1026.64 2891.18 1020.08 2886.77 1012.56 2883.03 1004.08 2882.44 1002.73 2881.43 1001.82 2879.98 1001.34 2878.54 1000.86 2877.17 1000.9 2875.88 1001.47 2873.23 1002.63 2872.76 1005.17 2874.48 1009.09 2876.13 1012.84 2879.01 1017.49 2883.11 1023.03 2887.21 1028.56 2890.96 1035.18 2894.34 1042.88 2896.31 1047.35 2897.29 1051.76 2897.3 1056.12 2897.31 1060.47 2896.48 1064.46 2894.82 1068.09 2893.15 1071.72 2890.82 1074.94 2887.82 1077.77 2884.82 1080.59 2881.42 1082.83 2877.62 1084.5 2870.27 1087.73 2862.42 1089.1 2854.05 1088.62 2845.68 1088.13 2837.47 1085.81 2829.42 1081.66 2821.37 1077.5 2813.81 1071.65 2806.74 1064.1 2799.66 1056.55 2793.73 1047.33 2788.94 1036.43 2785.72 1029.1 2783.61 1022.32 2782.6 1016.09 2781.6 1009.87 2781.6 1004.27 2782.61 999.298 2783.62 994.329 2785.55 990.038 2788.41 986.425 2791.26 982.812 2794.83 980.064 2799.11 978.183 2803.18 976.391 2807.18 975.645 2811.08 975.945 2814.98 976.246 2818.56 976.875 2821.81 977.834 2825.06 978.793 2827.67 979.681 2829.64 980.498 2831.61 981.316 2832.76 981.651 2833.09 981.506 2833.23 981.444 2833.51 980.55 2833.92 978.824 2834.34 977.098 2835.01 974.979 2835.93 972.467 2836.85 969.955 2838.26 967.31 2840.18 964.533 2842.09 961.755 2844.87 959.567 2848.51 957.967 2853.08 955.955 2857.44 955.502 2861.59 956.607 2865.73 957.712 2869.34 959.262 2872.42 961.257 2875.5 963.252 2877.61 965.156 2878.74 966.971 2879.88 968.786 2880.44 969.693 2880.44 969.693 2879.54 967.779 2879.73 964.883 2880.99 961.004 2882.26 957.125 2884.04 953.33 2886.33 949.621 2888.62 945.911 2891.55 942.443 2895.11 939.218 2898.67 935.992 2902.96 933.277 2907.98 931.073 2914.51 928.202 2921.23 926.76 2928.15 926.748 2935.06 926.735 2941.71 928.031 2948.08 930.634 2954.46 933.237 2960.27 937.133 2965.51 942.323 2970.76 947.513 2974.97 953.739 2978.17 961.002 2980.41 966.099 2981.97 970.651 2982.85 974.659 2983.74 978.667 2984.23 982.051 2984.34 984.81 2984.45 987.569 2984.48 989.765 2984.43 991.398 2984.38 993.031 2984.5 994.185 2984.8 994.86L2984.86 995.094 2985.3 994.268C2985.73 993.496 2986.39 992.461 2987.28 991.163 2988.16 989.864 2989.28 988.498 2990.62 987.065 2991.96 985.631 2993.76 984.416 2996.03 983.419 3000.74 981.346 3005.6 981.41 3010.59 983.613 3015.58 985.816 3019.53 990.22 3022.43 996.826Z" fill="#FFFFFF" fill-rule="evenodd" fill-opacity="1"/><text fill="#000000" fill-opacity="0" font-family="Arial,Arial_MSFontService,sans-serif" font-size="161.966" direction="ltr" writing-mode="lr-tb" x="2781.85" y="1068.47">g</text><path d="M3043.18 1133.3C3046.72 1143.96 3046.94 1153.57 3043.83 1162.12 3040.71 1170.67 3034.52 1176.48 3025.26 1179.56 3020.8 1181.05 3016.77 1182.06 3013.18 1182.6 3009.59 1183.14 3006.22 1183.48 3003.07 1183.63 2999.92 1183.77 2997.01 1183.98 2994.34 1184.26 2991.67 1184.53 2988.87 1185.16 2985.94 1186.13 2980.89 1187.81 2976.95 1189.36 2974.1 1190.78 2971.25 1192.2 2969.03 1193.44 2967.44 1194.49 2965.86 1195.54 2964.42 1196.54 2963.14 1197.5 2961.86 1198.46 2960.36 1199.23 2958.63 1199.8 2955.64 1200.8 2952.51 1200.34 2949.23 1198.42 2945.96 1196.51 2942.78 1193.87 2939.72 1190.49 2936.65 1187.12 2933.84 1183.21 2931.28 1178.75 2928.72 1174.3 2926.67 1169.74 2925.12 1165.1 2923.12 1159.1 2923.12 1154.26 2925.11 1150.57 2927.09 1146.89 2930.48 1144.25 2935.27 1142.65 2938.87 1141.46 2942.96 1140.56 2947.53 1139.96 2952.1 1139.36 2956.74 1138.8 2961.45 1138.29 2966.17 1137.78 2970.64 1137.24 2974.86 1136.67 2979.09 1136.1 2983.03 1135.21 2986.69 1133.99 2990.56 1132.71 2992.94 1131.46 2993.85 1130.24 2994.76 1129.03 2995 1127.79 2994.59 1126.54 2994.19 1125.33 2993.28 1124.12 2991.88 1122.92 2990.47 1121.71 2988.65 1120.71 2986.43 1119.93 2984.2 1119.14 2981.72 1118.72 2978.99 1118.68 2976.26 1118.63 2973.35 1119.12 2970.26 1120.15 2962.16 1122.85 2954.58 1125.2 2947.52 1127.21 2940.46 1129.21 2934.39 1130.34 2929.29 1130.6 2924.19 1130.85 2919.89 1130.03 2916.4 1128.14 2912.9 1126.25 2910.39 1123 2908.85 1118.38 2907.58 1114.55 2906.7 1110.43 2906.23 1106.04 2905.76 1101.65 2905.69 1097.41 2906.03 1093.32 2906.36 1089.23 2907.26 1085.51 2908.73 1082.16 2910.2 1078.82 2912.35 1076.67 2915.18 1075.73 2917.07 1075.1 2918.92 1074.69 2920.73 1074.49 2922.54 1074.29 2924.73 1073.97 2927.3 1073.52 2929.87 1073.08 2932.83 1072.5 2936.18 1071.77 2939.54 1071.05 2943.62 1069.89 2948.42 1068.29 2952.27 1067.01 2955.89 1065.38 2959.29 1063.41 2962.69 1061.43 2966.04 1059.4 2969.32 1057.31 2972.61 1055.23 2975.7 1053.25 2978.59 1051.39 2981.48 1049.53 2984.36 1048.12 2987.24 1047.17 2989.93 1046.27 2993.03 1046.77 2996.55 1048.67 3000.06 1050.57 3003.42 1053.09 3006.62 1056.24 3009.81 1059.39 3012.83 1063.08 3015.68 1067.3 3018.52 1071.51 3020.65 1075.75 3022.06 1079.99 3023.1 1083.12 3023.4 1085.97 3022.95 1088.54 3022.5 1091.11 3021.65 1093.38 3020.4 1095.33 3019.15 1097.29 3017.66 1099 3015.94 1100.45 3015.07 1101.18 3014.36 1101.69 3013.8 1101.99L3013.77 1102 3014.89 1102.16C3015.92 1102.43 3017.21 1103 3018.75 1103.87 3021.85 1105.61 3024.9 1107.89 3027.92 1110.71 3030.94 1113.53 3033.85 1116.83 3036.64 1120.6 3039.44 1124.37 3041.61 1128.61 3043.18 1133.3Z" fill="#FFFFFF" fill-rule="evenodd" fill-opacity="1"/><text fill="#000000" fill-opacity="0" font-family="Arial,Arial_MSFontService,sans-serif" font-size="153.577" direction="ltr" writing-mode="lr-tb" x="2905.82" y="1181.12">n</text><path d="M1643.62 1829.11C1642.73 1827.01 1642.96 1824.66 1644.29 1822.05 1645.62 1819.44 1647.6 1816.87 1650.23 1814.36 1652.86 1811.84 1655.97 1809.35 1659.56 1806.89 1663.15 1804.43 1666.93 1802.36 1670.89 1800.69 1674.54 1799.14 1677.95 1798.4 1681.14 1798.45 1684.32 1798.5 1687.14 1799.05 1689.58 1800.11 1692.02 1801.16 1694.19 1802.53 1696.09 1804.2 1697.99 1805.87 1699.71 1807.66 1701.24 1809.56 1703.08 1811.58 1704.64 1813.46 1705.93 1815.19 1707.21 1816.92 1708.44 1818.24 1709.63 1819.15 1710.82 1820.06 1712.1 1820.57 1713.47 1820.68 1714.84 1820.79 1716.64 1820.39 1718.84 1819.45 1722.9 1817.74 1726.94 1815.91 1730.98 1813.97 1735.02 1812.03 1739.16 1810 1743.41 1807.88 1747.65 1805.76 1751.62 1803.63 1755.3 1801.5 1758.98 1799.38 1762.35 1797.39 1765.41 1795.55 1769.65 1792.67 1773.07 1790 1775.69 1787.53 1778.31 1785.06 1781.23 1783.15 1784.47 1781.78 1786.92 1780.74 1789.7 1780.96 1792.83 1782.43 1795.95 1783.9 1798.97 1786.03 1801.89 1788.81 1804.81 1791.59 1807.67 1794.98 1810.47 1798.99 1813.26 1802.99 1815.62 1807.26 1817.54 1811.81 1819.44 1816.29 1820.52 1820.34 1820.81 1823.96 1821.09 1827.58 1820.79 1830.8 1819.92 1833.62 1819.04 1836.43 1817.71 1838.73 1815.92 1840.52 1814.14 1842.31 1812.24 1843.63 1810.22 1844.48 1808.35 1845.27 1805.1 1846.27 1800.47 1847.47 1795.84 1848.66 1790.5 1850.09 1784.45 1851.74 1778.4 1853.39 1772.01 1855.27 1765.26 1857.38 1758.52 1859.49 1752.04 1861.86 1745.83 1864.48 1740.72 1866.64 1737.09 1868.58 1734.94 1870.29 1732.79 1872 1731.93 1873.37 1732.37 1874.4 1733.43 1876.91 1734.75 1879.32 1736.32 1881.61 1737.9 1883.9 1739.63 1886.34 1741.52 1888.92 1743.42 1891.5 1745.05 1893.62 1746.42 1895.29 1747.78 1896.96 1748.78 1898.53 1749.41 1900.01 1750.7 1903.09 1750.57 1906.12 1749 1909.12 1747.42 1912.12 1744.26 1914.62 1739.52 1916.62 1733.43 1919.19 1727.66 1921.17 1722.2 1922.55 1716.73 1923.94 1711.7 1924.65 1707.09 1924.67 1702.48 1924.7 1698.46 1923.89 1695.02 1922.23 1691.59 1920.57 1689.07 1917.83 1687.45 1914.01 1685.1 1908.45 1683.05 1902.81 1681.29 1897.09 1679.54 1891.36 1677.01 1884.6 1673.72 1876.81 1670.55 1869.3 1667.39 1862.98 1664.24 1857.85 1661.09 1852.72 1658.17 1848.39 1655.48 1844.88 1652.79 1841.36 1650.35 1838.37 1648.18 1835.9 1646.01 1833.43 1644.49 1831.17 1643.62 1829.11Z" fill="#FFFFFF" fill-rule="evenodd" fill-opacity="1"/><text fill="#000000" fill-opacity="0" font-family="Arial,Arial_MSFontService,sans-serif" font-size="143.538" direction="ltr" writing-mode="lr-tb" x="1643.09" y="1906.73">T</text><path d="M1672.13 1742.94C1673.51 1744.8 1675.19 1746.47 1677.16 1747.94 1679.14 1749.41 1681.08 1750.53 1682.98 1751.3 1684.88 1752.06 1686.62 1752.43 1688.2 1752.41 1689.78 1752.38 1690.99 1752.06 1691.81 1751.45 1692.11 1751.23 1692.31 1750.95 1692.4 1750.62 1692.48 1750.28 1692.39 1749.92 1692.1 1749.53 1690.91 1747.92 1689.2 1746.21 1686.99 1744.41 1684.77 1742.6 1682.53 1740.96 1680.26 1739.48 1677.99 1738 1676.02 1736.95 1674.35 1736.35 1672.69 1735.75 1671.77 1735.52 1671.59 1735.65 1670.83 1736.21 1670.42 1737.15 1670.37 1738.47 1670.32 1739.79 1670.91 1741.28 1672.13 1742.94ZM1645.23 1765.1C1640.37 1758.53 1636.9 1751.94 1634.79 1745.32 1632.69 1738.7 1631.89 1732.42 1632.38 1726.48 1632.87 1720.53 1634.53 1715.01 1637.37 1709.92 1640.2 1704.82 1644.05 1700.47 1648.91 1696.88 1653.22 1693.69 1657.78 1692.49 1662.59 1693.27 1667.39 1694.05 1672.05 1695.83 1676.58 1698.61 1681.1 1701.39 1685.41 1704.6 1689.51 1708.24 1693.6 1711.87 1697.43 1715.33 1700.99 1718.6 1704.55 1721.87 1707.45 1724.31 1709.68 1725.93 1711.91 1727.56 1713.25 1728.2 1713.69 1727.88 1714.94 1726.95 1715.61 1725.34 1715.7 1723.05 1715.79 1720.76 1714.22 1717.43 1710.99 1713.07 1708.92 1710.26 1706.49 1708.04 1703.73 1706.42 1700.96 1704.81 1698.16 1703.48 1695.32 1702.46 1692.49 1701.44 1689.8 1700.47 1687.27 1699.55 1684.74 1698.64 1682.91 1697.42 1681.79 1695.9 1680.43 1693.7 1679.73 1691.15 1679.68 1688.26 1679.63 1685.37 1679.95 1682.41 1680.64 1679.36 1681.33 1676.31 1682.39 1673.43 1683.81 1670.73 1685.23 1668.02 1686.95 1665.91 1688.98 1664.41 1691.39 1662.63 1694.93 1661.91 1699.57 1662.24 1704.22 1662.58 1709.21 1663.88 1714.52 1666.14 1719.83 1668.41 1725.31 1671.65 1730.95 1675.86 1736.59 1680.06 1741.76 1685.34 1746.46 1691.7 1751.73 1698.83 1755.57 1706.35 1757.99 1714.24 1760.4 1722.14 1761.25 1730.03 1760.52 1737.91 1759.79 1745.78 1757.43 1753.27 1753.42 1760.37 1749.41 1767.46 1743.64 1773.8 1736.09 1779.38 1728.49 1785 1720.57 1788.81 1712.32 1790.82 1704.07 1792.83 1695.86 1793.19 1687.7 1791.91 1679.54 1790.63 1671.8 1787.72 1664.49 1783.16 1657.18 1778.6 1650.76 1772.58 1645.23 1765.1Z" fill="#FFFFFF" fill-rule="evenodd" fill-opacity="1"/><text fill="#000000" fill-opacity="0" font-family="Arial,Arial_MSFontService,sans-serif" font-size="130.499" direction="ltr" writing-mode="lr-tb" x="1632.24" y="1776.35">e</text><path d="M1571.79 1679.41C1566.65 1673.88 1562.8 1668.44 1560.22 1663.1 1557.65 1657.76 1555.99 1652.85 1555.24 1648.37 1554.49 1643.89 1554.48 1639.93 1555.21 1636.46 1555.94 1633 1557.05 1630.57 1558.55 1629.18 1560.36 1627.49 1562.86 1626.2 1566.04 1625.3 1569.22 1624.41 1572.47 1623.83 1575.79 1623.56 1579.11 1623.28 1582.32 1623.42 1585.44 1623.96 1588.55 1624.51 1590.9 1625.63 1592.48 1627.34 1593.99 1628.96 1594.67 1631.04 1594.51 1633.58 1594.36 1636.12 1594.18 1638.72 1593.98 1641.4 1593.77 1644.07 1593.75 1646.5 1593.9 1648.69 1594.05 1650.88 1594.77 1652.66 1596.05 1654.04 1596.75 1654.79 1597.5 1655.16 1598.32 1655.16 1599.14 1655.16 1599.84 1654.89 1600.41 1654.36 1601.74 1653.13 1602.24 1651.25 1601.92 1648.73 1601.6 1646.21 1600.82 1643.06 1599.57 1639.29 1598.32 1635.51 1597.01 1631.33 1595.63 1626.75 1594.25 1622.17 1593.36 1617.45 1592.97 1612.58 1592.59 1607.7 1593.09 1602.84 1594.48 1597.99 1595.86 1593.14 1598.85 1588.58 1603.44 1584.31 1612.26 1576.11 1622.43 1572.88 1633.96 1574.61 1645.49 1576.34 1657.2 1583.61 1669.11 1596.42 1675.45 1603.23 1680.17 1609.8 1683.27 1616.14 1686.37 1622.48 1688.42 1628.29 1689.42 1633.57 1690.41 1638.86 1690.47 1643.52 1689.61 1647.56 1688.75 1651.59 1687.29 1654.56 1685.24 1656.47 1682.98 1658.57 1680.11 1660.07 1676.63 1660.98 1673.15 1661.89 1669.56 1662.3 1665.84 1662.22 1662.12 1662.15 1658.6 1661.63 1655.27 1660.66 1651.94 1659.7 1649.4 1658.28 1647.65 1656.4 1646.05 1654.68 1645.31 1652.44 1645.41 1649.67 1645.51 1646.9 1645.61 1644.02 1645.72 1641.03 1645.83 1638.04 1645.64 1635.13 1645.17 1632.31 1644.69 1629.48 1643.47 1627.02 1641.5 1624.9 1640.87 1624.23 1640.04 1623.91 1639 1623.94 1637.97 1623.97 1637.07 1624.34 1636.31 1625.04 1635.34 1625.94 1635.04 1627.56 1635.4 1629.9 1635.76 1632.24 1636.52 1635.2 1637.68 1638.79 1638.84 1642.37 1640.11 1646.39 1641.49 1650.86 1642.88 1655.33 1643.68 1659.93 1643.91 1664.66 1644.13 1669.39 1643.53 1674.15 1642.09 1678.92 1640.65 1683.7 1637.64 1688.22 1633.05 1692.49 1629.12 1696.15 1624.68 1698.55 1619.73 1699.7 1614.78 1700.84 1609.59 1700.81 1604.17 1699.58 1598.74 1698.36 1593.27 1696.07 1587.76 1692.71 1582.24 1689.36 1576.92 1684.92 1571.79 1679.41Z" fill="#FFFFFF" fill-rule="evenodd" fill-opacity="1"/><text fill="#000000" fill-opacity="0" font-family="Arial,Arial_MSFontService,sans-serif" font-size="126.373" direction="ltr" writing-mode="lr-tb" x="1554.67" y="1684.73">s</text><path d="M1456.11 1639.08C1452.02 1635.33 1449.89 1631.75 1449.74 1628.34 1449.59 1624.93 1451.02 1621.57 1454.05 1618.26 1457.4 1614.6 1461.68 1610.65 1466.89 1606.42 1472.11 1602.19 1477.05 1597.51 1481.74 1592.39 1482.77 1591.26 1482.89 1590.34 1482.1 1589.61 1480.22 1587.9 1478.01 1586.23 1475.45 1584.62 1472.89 1583 1470.92 1581.56 1469.53 1580.29 1467.71 1578.62 1466.9 1576.77 1467.12 1574.74 1467.34 1572.72 1468.09 1571 1469.38 1569.6 1475.87 1562.5 1482.5 1557.37 1489.28 1554.22 1496.06 1551.07 1501.96 1550.8 1506.99 1553.42 1508.61 1554.37 1509.92 1554.96 1510.94 1555.2 1511.95 1555.43 1513.09 1555.31 1514.34 1554.82 1515.6 1554.34 1517.11 1553.29 1518.86 1551.68 1520.61 1550.07 1523.08 1547.52 1526.26 1544.04 1530.98 1538.88 1534.49 1534.77 1536.79 1531.71 1539.09 1528.65 1540.82 1526.12 1541.98 1524.11 1543.15 1522.1 1544.19 1520.28 1545.1 1518.63 1546.01 1516.99 1547.27 1515.29 1548.89 1513.53 1550.77 1511.46 1553.63 1510.13 1557.45 1509.53 1561.27 1508.93 1565.52 1509.15 1570.21 1510.19 1574.9 1511.22 1579.96 1513.16 1585.39 1515.98 1590.83 1518.81 1596.21 1522.67 1601.54 1527.54 1605.22 1530.9 1607.36 1534.36 1607.98 1537.92 1608.59 1541.47 1607.2 1545.11 1603.79 1548.84 1598.73 1554.37 1591.96 1560.7 1583.47 1567.83 1574.99 1574.96 1565.7 1584.05 1555.61 1595.08 1554.89 1595.87 1554.7 1596.42 1555.04 1596.73 1555.7 1597.33 1557.15 1598.09 1559.41 1599.02 1561.66 1599.94 1563.53 1601.08 1565.02 1602.44 1566.46 1603.76 1567.3 1605.31 1567.54 1607.11 1567.79 1608.9 1566.99 1610.8 1565.16 1612.81 1563 1615.16 1560.18 1617.62 1556.68 1620.16 1553.19 1622.7 1549.51 1624.85 1545.66 1626.59 1541.8 1628.34 1538.01 1629.51 1534.3 1630.11 1530.58 1630.7 1527.47 1629.86 1524.97 1627.57 1524.52 1627.16 1524.04 1627.24 1523.52 1627.8 1521.87 1629.6 1520.57 1631.52 1519.62 1633.53 1518.67 1635.55 1517.87 1637.53 1517.21 1639.48 1516.55 1641.42 1515.86 1643.33 1515.15 1645.18 1514.43 1647.04 1513.35 1648.77 1511.89 1650.36 1509.58 1652.89 1505.87 1654.24 1500.77 1654.41 1495.67 1654.58 1490.37 1653.95 1484.89 1652.54 1479.4 1651.12 1474.01 1649.24 1468.72 1646.88 1463.42 1644.52 1459.22 1641.92 1456.11 1639.08Z" fill="#FFFFFF" fill-rule="evenodd" fill-opacity="1"/><text fill="#000000" fill-opacity="0" font-family="Arial,Arial_MSFontService,sans-serif" font-size="145.231" direction="ltr" writing-mode="lr-tb" x="1449.73" y="1636.28">t</text></g></g></svg>