<svg width="816" height="547" xmlns="http://www.w3.org/2000/svg" xmlns:xlink="http://www.w3.org/1999/xlink" xml:space="preserve" overflow="hidden"><g transform="translate(-232 -86)"><g><g><g><g><g><g><path d="M612 86.2748C754.475 86.2748 869.977 201.774 869.977 344.25L779.682 344.25C779.682 251.641 704.61 176.566 612 176.566Z" stroke="#FFFFFF" stroke-width="1.9125" stroke-linecap="butt" stroke-linejoin="round" stroke-miterlimit="10" stroke-opacity="1" fill="#01DBFD" fill-rule="evenodd" fill-opacity="1" transform="matrix(1 0 0 1.00055 28 15.5607)"/><path d="M869.977 344.25C869.977 486.726 754.475 602.225 612 602.225L612 511.934C704.61 511.934 779.682 436.859 779.682 344.25Z" stroke="#FFFFFF" stroke-width="1.9125" stroke-linecap="butt" stroke-linejoin="round" stroke-miterlimit="10" stroke-opacity="1" fill="#00B0F0" fill-rule="evenodd" fill-opacity="1" transform="matrix(1 0 0 1.00055 28 15.5607)"/><path d="M612 602.225C469.524 602.225 354.025 486.726 354.025 344.25L444.316 344.25C444.316 436.859 519.391 511.934 612 511.934Z" stroke="#FFFFFF" stroke-width="1.9125" stroke-linecap="butt" stroke-linejoin="round" stroke-miterlimit="10" stroke-opacity="1" fill="#0E27E2" fill-rule="evenodd" fill-opacity="1" transform="matrix(1 0 0 1.00055 28 15.5607)"/><path d="M354.025 344.25C354.025 201.774 469.524 86.2748 612 86.2748L612 176.566C519.391 176.566 444.316 251.641 444.316 344.25Z" stroke="#FFFFFF" stroke-width="1.9125" stroke-linecap="butt" stroke-linejoin="round" stroke-miterlimit="10" stroke-opacity="1" fill="#01FFEB" fill-rule="evenodd" fill-opacity="1" transform="matrix(1 0 0 1.00055 28 15.5607)"/><path d="M606.263 87.3375 688.5 131.006 606.263 174.675Z" fill="#01FFEB" fill-rule="evenodd" fill-opacity="1" transform="matrix(1 0 0 1.00055 28 15.5607)"/><path d="M0 82.2375 43.9875 0 87.975 82.2375Z" fill="#00B0F0" fill-rule="evenodd" fill-opacity="1" transform="matrix(1.83697e-16 1.00055 1 -1.83798e-16 560.95 529.03)"/><path d="M868.912 340.425 824.925 422.663 780.938 340.425Z" fill="#01DBFD" fill-rule="evenodd" fill-opacity="1" transform="matrix(1 0 0 1.00055 28 15.5607)"/><path d="M0 82.2375 43.6688 0 87.3375 82.2375Z" fill="#0E27E2" fill-rule="evenodd" fill-opacity="1" transform="matrix(-1 0 0 1.00055 471.062 280.907)"/><path d="M403.201 224.245C403.753 223.227 404.475 222.575 405.366 222.291 406.258 222.007 407.086 222.072 407.851 222.487 408.057 222.598 408.523 222.927 409.246 223.472 409.971 224.017 410.833 224.658 411.835 225.393 412.837 226.129 413.956 226.965 415.194 227.902 416.432 228.84 417.691 229.75 418.97 230.633 420.25 231.517 421.5 232.359 422.721 233.161 423.942 233.962 425.112 234.665 426.23 235.271 427.379 235.893 428.32 236.336 429.055 236.599 429.789 236.862 430.369 236.974 430.795 236.935 431.222 236.896 431.555 236.771 431.796 236.558 432.036 236.347 432.279 236.015 432.524 235.563 433.131 234.443 433.498 233.322 433.625 232.202 433.751 231.082 433.78 230.055 433.712 229.125 433.643 228.193 433.542 227.328 433.409 226.529 433.277 225.729 433.319 225.129 433.536 224.728 433.87 224.111 434.403 223.704 435.132 223.508 435.861 223.311 436.884 223.57 438.2 224.283 439.51 224.992 440.739 225.722 441.89 226.473 443.04 227.224 444 228.052 444.77 228.957 445.539 229.862 446.098 230.93 446.448 232.16 446.796 233.391 446.742 235.07 446.284 237.198 446.182 239.156 445.758 241.029 445.011 242.816 444.264 244.604 443.416 246.374 442.466 248.127 441.975 249.034 441.395 249.968 440.728 250.929 440.06 251.89 439.331 252.775 438.539 253.583 437.746 254.392 436.876 255.066 435.925 255.604 434.975 256.143 434.063 256.389 433.191 256.342 432.319 256.313 431.198 256.061 429.826 255.585 428.454 255.109 426.902 254.501 425.17 253.759 423.439 253.017 421.646 252.193 419.793 251.287 417.939 250.379 416.183 249.477 414.525 248.578 410.09 246.176 406.609 243.965 404.081 241.946 401.552 239.927 400.286 238.014 400.281 236.21 400.275 235.234 400.37 234.148 400.567 232.95 400.765 231.752 401.016 230.601 401.321 229.496 401.626 228.391 401.947 227.368 402.282 226.426 402.618 225.484 402.924 224.757 403.201 224.245Z" fill="#FFFFFF" fill-rule="evenodd" fill-opacity="1" transform="matrix(1 0 0 1.00055 28 15.5607)"/><path d="M448.845 199.153C448.391 199.614 448.004 200.148 447.686 200.754 447.367 201.361 447.143 201.943 447.016 202.499 446.887 203.054 446.861 203.549 446.937 203.983 447.012 204.418 447.152 204.734 447.355 204.935 447.429 205.008 447.514 205.049 447.61 205.059 447.707 205.069 447.802 205.026 447.895 204.931 448.287 204.532 448.684 203.99 449.084 203.303 449.484 202.615 449.839 201.927 450.148 201.238 450.457 200.55 450.658 199.964 450.751 199.479 450.845 198.996 450.869 198.732 450.825 198.688 450.637 198.503 450.361 198.433 449.996 198.476 449.631 198.519 449.247 198.745 448.845 199.153ZM441.585 192.716C443.18 191.096 444.842 189.855 446.572 188.989 448.301 188.125 449.993 187.631 451.649 187.509 453.304 187.386 454.895 187.604 456.419 188.163 457.944 188.722 459.305 189.592 460.504 190.773 461.567 191.821 462.096 193.022 462.089 194.377 462.082 195.731 461.795 197.091 461.226 198.456 460.657 199.821 459.962 201.145 459.14 202.429 458.317 203.712 457.533 204.915 456.788 206.035 456.043 207.156 455.496 208.058 455.147 208.743 454.798 209.428 454.677 209.823 454.785 209.929 455.095 210.233 455.566 210.349 456.2 210.274 456.834 210.198 457.681 209.623 458.741 208.547 459.425 207.854 459.929 207.091 460.254 206.26 460.579 205.429 460.821 204.602 460.98 203.778 461.139 202.953 461.289 202.173 461.43 201.438 461.572 200.702 461.827 200.147 462.197 199.771 462.745 199.302 463.414 198.999 464.206 198.86 464.999 198.723 465.829 198.683 466.697 198.74 467.565 198.798 468.402 198.963 469.208 199.236 470.014 199.509 470.668 199.893 471.168 200.386 471.763 200.972 472.115 201.912 472.224 203.204 472.333 204.497 472.191 205.923 471.798 207.483 471.405 209.042 470.752 210.688 469.839 212.422 468.927 214.155 467.699 215.806 466.155 217.373 464.421 219.132 462.521 220.514 460.454 221.52 458.388 222.526 456.256 223.101 454.057 223.242 451.859 223.384 449.698 223.057 447.573 222.263 445.448 221.469 443.455 220.154 441.593 218.32 439.719 216.474 438.328 214.46 437.418 212.279 436.508 210.097 436.053 207.856 436.051 205.557 436.049 203.257 436.517 201.004 437.453 198.795 438.388 196.588 439.766 194.561 441.585 192.716Z" fill="#FFFFFF" fill-rule="evenodd" fill-opacity="1" transform="matrix(1 0 0 1.00055 28 15.5607)"/><path d="M484.598 182.364C484.204 182.672 483.828 183.144 483.469 183.779 483.109 184.414 482.833 185.066 482.641 185.737 482.449 186.408 482.345 187.023 482.329 187.584 482.312 188.145 482.388 188.533 482.555 188.747 483.054 189.381 483.654 189.424 484.356 188.873 484.598 188.684 484.829 188.317 485.051 187.772 485.273 187.227 485.44 186.61 485.552 185.921 485.665 185.233 485.702 184.614 485.665 184.064 485.628 183.515 485.51 183.113 485.31 182.859 485.114 182.609 484.958 182.454 484.844 182.395 484.728 182.336 484.647 182.326 484.598 182.364ZM472.585 165.292C473.97 164.207 475.453 163.354 477.036 162.737 478.617 162.118 480.208 161.81 481.806 161.812 483.404 161.813 484.94 162.134 486.414 162.776 487.887 163.418 489.173 164.439 490.273 165.841 491.325 167.182 492.208 168.399 492.921 169.49 493.635 170.58 494.224 171.542 494.69 172.374 495.157 173.205 495.559 173.92 495.897 174.518 496.235 175.115 496.594 175.656 496.974 176.141 497.633 176.981 498.192 177.579 498.648 177.934 499.105 178.289 499.501 178.541 499.836 178.689 500.17 178.839 500.492 178.949 500.801 179.022 501.109 179.095 501.403 179.308 501.679 179.661 502.076 180.166 502.225 180.9 502.126 181.862 502.026 182.824 501.777 183.83 501.38 184.882 500.981 185.934 500.47 186.958 499.845 187.955 499.22 188.952 498.522 189.753 497.754 190.356 497.098 190.87 496.456 191.186 495.826 191.303 495.197 191.42 494.641 191.45 494.159 191.392 493.678 191.334 493.308 191.272 493.051 191.205 492.793 191.14 492.682 191.093 492.719 191.064 492.635 191.13 492.476 191.41 492.242 191.905 492.007 192.401 491.662 193.018 491.207 193.756 490.752 194.494 490.192 195.29 489.529 196.145 488.865 196.999 488.052 197.803 487.091 198.557 484.341 200.714 481.729 201.676 479.257 201.442 476.784 201.208 474.78 200.113 473.245 198.155 471.897 196.437 471.146 194.698 470.991 192.937 470.836 191.177 471.04 189.469 471.605 187.814 472.168 186.158 472.922 184.616 473.867 183.186 474.812 181.757 475.705 180.459 476.547 179.294 477.388 178.128 478.017 177.171 478.435 176.424 478.852 175.677 478.952 175.166 478.736 174.89 478.648 174.779 478.48 174.717 478.231 174.705 477.983 174.693 477.656 174.846 477.25 175.165 476.212 175.979 475.373 176.922 474.733 177.996 474.093 179.069 473.573 180.103 473.171 181.098 472.769 182.092 472.402 183.053 472.069 183.981 471.736 184.908 471.318 185.57 470.814 185.965 469.901 186.681 468.968 186.719 468.016 186.081 467.063 185.441 466.237 184.675 465.538 183.784 465.062 183.178 464.652 182.583 464.308 181.999 463.964 181.415 463.767 180.887 463.717 180.415 463.508 179.493 463.542 178.418 463.819 177.192 464.097 175.965 464.611 174.697 465.36 173.387 466.109 172.077 467.095 170.719 468.317 169.313 469.539 167.907 470.961 166.566 472.585 165.292Z" fill="#FFFFFF" fill-rule="evenodd" fill-opacity="1" transform="matrix(1 0 0 1.00055 28 15.5607)"/><path d="M509.081 140.097C510.14 139.416 511.27 139.031 512.471 138.942 513.672 138.854 514.815 138.96 515.899 139.262 516.984 139.563 517.979 140.018 518.882 140.625 519.786 141.233 520.461 141.883 520.905 142.574 521.475 143.46 521.782 144.494 521.826 145.676 521.871 146.858 521.69 148.049 521.283 149.247 520.876 150.446 520.287 151.586 519.517 152.668 518.746 153.75 517.823 154.636 516.75 155.326 515.177 156.337 513.931 156.128 513.012 154.698 512.547 153.975 512.123 153.511 511.741 153.308 511.358 153.105 511.006 153.107 510.683 153.316 510.147 153.66 510.143 154.244 510.671 155.066 511.391 156.185 512.129 157.201 512.885 158.114 513.64 159.026 514.443 159.967 515.292 160.935 516.142 161.903 517.016 162.944 517.917 164.056 518.818 165.169 519.687 166.377 520.524 167.678 521.58 169.322 521.98 170.896 521.722 172.402 521.464 173.907 520.558 175.16 519.004 176.159 517.822 176.918 516.575 177.564 515.26 178.093 513.945 178.623 512.701 178.991 511.526 179.197 510.352 179.403 509.26 179.423 508.251 179.257 507.243 179.09 506.502 178.64 506.03 177.906 505.45 177.003 504.889 175.955 504.349 174.761 503.809 173.567 503.255 172.529 502.686 171.644 501.025 169.06 499.618 167.125 498.467 165.839 497.315 164.554 496.356 163.619 495.589 163.036 494.823 162.453 494.179 162.024 493.658 161.75 493.137 161.475 492.661 161.002 492.228 160.33 491.721 159.541 491.692 158.493 492.143 157.188 492.594 155.883 493.224 154.578 494.031 153.275 494.839 151.971 495.73 150.771 496.703 149.673 497.676 148.575 498.49 147.816 499.145 147.394 499.797 146.975 500.412 146.781 500.989 146.812 501.566 146.844 502.077 146.932 502.523 147.079 502.97 147.225 503.299 147.342 503.512 147.431 503.726 147.519 503.843 147.557 503.864 147.544 503.921 147.507 504.054 147.229 504.264 146.71 504.473 146.191 504.783 145.537 505.193 144.75 505.603 143.963 506.112 143.145 506.721 142.298 507.33 141.45 508.117 140.717 509.081 140.097Z" fill="#FFFFFF" fill-rule="evenodd" fill-opacity="1" transform="matrix(1 0 0 1.00055 28 15.5607)"/><path d="M545.951 120.261C548.728 118.819 551.359 118.34 553.846 118.822 556.332 119.304 558.202 120.751 559.454 123.162 560.058 124.325 560.512 125.387 560.817 126.351 561.122 127.314 561.364 128.225 561.542 129.086 561.72 129.947 561.905 130.738 562.097 131.46 562.289 132.181 562.584 132.924 562.979 133.687 563.662 135.001 564.261 136.018 564.776 136.739 565.291 137.46 565.728 138.015 566.086 138.406 566.444 138.796 566.783 139.146 567.103 139.456 567.422 139.767 567.699 140.147 567.933 140.597 568.337 141.375 568.347 142.257 567.964 143.241 567.582 144.225 566.993 145.212 566.2 146.203 565.407 147.194 564.454 148.138 563.341 149.037 562.228 149.936 561.066 150.699 559.856 151.327 558.294 152.138 556.964 152.351 555.864 151.966 554.763 151.58 553.889 150.764 553.242 149.518 552.755 148.58 552.329 147.496 551.964 146.266 551.599 145.036 551.244 143.785 550.898 142.511 550.551 141.237 550.207 140.031 549.866 138.895 549.525 137.758 549.107 136.713 548.612 135.76 548.089 134.753 547.641 134.152 547.268 133.955 546.894 133.759 546.544 133.745 546.218 133.915 545.903 134.078 545.61 134.379 545.34 134.818 545.07 135.258 544.876 135.8 544.757 136.447 544.637 137.094 544.632 137.793 544.738 138.546 544.844 139.298 545.107 140.077 545.525 140.882 546.621 142.991 547.599 144.972 548.459 146.825 549.32 148.678 549.897 150.3 550.189 151.69 550.481 153.081 550.444 154.298 550.078 155.341 549.711 156.384 548.927 157.218 547.724 157.843 546.726 158.361 545.633 158.781 544.445 159.102 543.258 159.423 542.096 159.628 540.957 159.715 539.818 159.803 538.756 159.718 537.772 159.46 536.788 159.203 536.104 158.706 535.722 157.969 535.466 157.476 535.271 156.986 535.137 156.497 535.003 156.009 534.819 155.421 534.585 154.733 534.351 154.046 534.061 153.257 533.715 152.366 533.369 151.476 532.872 150.405 532.223 149.155 531.702 148.154 531.096 147.228 530.405 146.379 529.713 145.53 529.008 144.7 528.29 143.888 527.573 143.075 526.895 142.313 526.258 141.6 525.62 140.887 525.106 140.155 524.717 139.405 524.354 138.705 524.356 137.831 524.724 136.781 525.091 135.732 525.638 134.699 526.365 133.682 527.091 132.665 527.972 131.674 529.008 130.708 530.043 129.741 531.113 128.971 532.219 128.398 533.033 127.975 533.804 127.769 534.53 127.78 535.258 127.791 535.917 127.925 536.51 128.183 537.102 128.441 537.636 128.776 538.112 129.186 538.589 129.597 538.801 129.879 538.749 130.035 538.526 129.779 538.585 129.188 538.928 128.262 539.27 127.336 539.764 126.396 540.407 125.443 541.051 124.489 541.83 123.546 542.746 122.612 543.661 121.679 544.73 120.896 545.951 120.261Z" fill="#FFFFFF" fill-rule="evenodd" fill-opacity="1" transform="matrix(1 0 0 1.00055 28 15.5607)"/><path d="M729.753 155.298C729.204 155.148 728.745 155.153 728.382 155.313 728.012 155.473 727.732 155.927 727.528 156.674 727.152 158.068 726.75 159.539 726.329 161.086 725.909 162.633 725.577 163.885 725.335 164.841 725.093 165.797 724.876 166.652 724.691 167.406 724.512 168.16 724.41 168.64 724.385 168.845 724.302 169.456 724.321 169.851 724.455 170.028 724.582 170.205 724.78 170.33 725.048 170.402 725.418 170.504 725.915 170.415 726.533 170.134 727.152 169.854 727.808 169.378 728.49 168.706 729.179 168.034 729.81 167.207 730.396 166.223 730.983 165.24 731.436 164.159 731.761 162.979 732.073 161.817 732.213 160.78 732.175 159.868 732.137 158.956 731.997 158.169 731.761 157.508 731.525 156.847 731.225 156.339 730.862 155.984 730.498 155.63 730.129 155.401 729.753 155.298ZM731.576 139.871C734.617 140.699 737.396 141.864 739.914 143.366 742.432 144.869 744.473 146.77 746.041 149.069 747.603 151.367 748.591 154.052 748.999 157.121 749.407 160.191 749.075 163.685 748.011 167.603 746.927 171.571 745.441 174.82 743.548 177.35 741.655 179.88 739.449 181.793 736.931 183.089 734.413 184.386 731.697 185.088 728.784 185.196 725.864 185.303 722.829 184.928 719.674 184.069 717.914 183.59 716.314 183.009 714.873 182.327 713.433 181.644 712.17 180.917 711.087 180.146 710.003 179.375 709.123 178.582 708.447 177.767 707.772 176.952 707.408 176.28 707.351 175.75 707.141 173.919 707.242 171.602 707.651 168.799 708.059 165.995 708.773 162.702 709.805 158.918 710.322 157.02 710.87 155.16 711.456 153.34 712.043 151.52 712.61 149.839 713.165 148.298 713.72 146.756 714.229 145.439 714.701 144.345 715.173 143.251 715.575 142.456 715.906 141.96 716.276 141.403 716.576 140.967 716.799 140.654 717.022 140.339 717.296 140.057 717.627 139.808 717.959 139.558 718.341 139.356 718.781 139.202 719.227 139.047 719.776 138.936 720.445 138.869 721.669 138.744 723.186 138.703 724.978 138.745 726.776 138.788 728.975 139.163 731.576 139.871Z" fill="#FFFFFF" fill-rule="evenodd" fill-opacity="1" transform="matrix(1 0 0 1.00055 28 15.5607)"/><path d="M772.523 192.078C772.102 191.59 771.598 191.163 771.018 190.798 770.438 190.433 769.877 190.166 769.335 189.995 768.787 189.825 768.296 189.76 767.856 189.802 767.416 189.843 767.091 189.957 766.874 190.144 766.798 190.213 766.753 190.294 766.734 190.389 766.715 190.484 766.753 190.583 766.836 190.684 767.206 191.105 767.716 191.543 768.372 191.995 769.023 192.447 769.686 192.854 770.342 193.215 771.005 193.577 771.579 193.823 772.051 193.954 772.529 194.084 772.79 194.129 772.835 194.088 773.032 193.916 773.128 193.646 773.109 193.279 773.096 192.911 772.899 192.511 772.523 192.078ZM779.51 185.339C780.995 187.055 782.104 188.808 782.837 190.6 783.564 192.391 783.921 194.117 783.915 195.776 783.915 197.436 783.57 199.005 782.895 200.482 782.219 201.959 781.243 203.248 779.975 204.351 778.846 205.33 777.61 205.765 776.258 205.653 774.913 205.541 773.574 205.149 772.261 204.476 770.941 203.804 769.679 203.007 768.462 202.087 767.244 201.168 766.109 200.293 765.051 199.464 763.986 198.634 763.132 198.018 762.476 197.617 761.819 197.216 761.436 197.066 761.322 197.165 760.996 197.45 760.843 197.911 760.869 198.549 760.895 199.187 761.404 200.076 762.393 201.217 763.03 201.952 763.75 202.513 764.554 202.902 765.357 203.29 766.167 203.596 766.976 203.818 767.786 204.04 768.551 204.251 769.271 204.449 769.992 204.646 770.527 204.945 770.871 205.342 771.298 205.924 771.547 206.616 771.624 207.416 771.7 208.217 771.675 209.048 771.554 209.908 771.426 210.77 771.196 211.591 770.865 212.374 770.527 213.156 770.094 213.777 769.565 214.238 768.933 214.786 767.971 215.064 766.677 215.073 765.376 215.082 763.967 214.829 762.444 214.317 760.92 213.803 759.326 213.025 757.669 211.981 756.011 210.937 754.462 209.584 753.021 207.923 751.402 206.058 750.165 204.057 749.324 201.919 748.482 199.78 748.074 197.61 748.106 195.407 748.132 193.205 748.629 191.075 749.585 189.018 750.541 186.961 752.008 185.076 753.978 183.362 755.967 181.637 758.077 180.406 760.327 179.668 762.571 178.93 764.841 178.649 767.136 178.826 769.424 179.003 771.636 179.644 773.766 180.748 775.895 181.852 777.807 183.383 779.51 185.339Z" fill="#FFFFFF" fill-rule="evenodd" fill-opacity="1" transform="matrix(1 0 0 1.00055 28 15.5607)"/><path d="M802.479 216.74C803.607 218.516 804.378 220.201 804.812 221.794 805.239 223.387 805.443 224.816 805.417 226.079 805.392 227.343 805.194 228.43 804.818 229.34 804.442 230.25 804.015 230.857 803.53 231.161 802.95 231.53 802.198 231.756 801.28 231.838 800.368 231.92 799.444 231.913 798.526 231.817 797.602 231.721 796.728 231.52 795.906 231.211 795.084 230.903 794.497 230.475 794.153 229.927 793.821 229.406 793.745 228.802 793.917 228.115 794.089 227.428 794.268 226.724 794.465 226.003 794.656 225.282 794.79 224.618 794.86 224.011 794.931 223.405 794.822 222.88 794.542 222.438 794.389 222.197 794.204 222.055 793.981 222.014 793.758 221.972 793.554 222.01 793.369 222.127 792.942 222.396 792.706 222.883 792.667 223.589 792.623 224.295 792.674 225.196 792.827 226.293 792.974 227.391 793.12 228.601 793.26 229.925 793.407 231.249 793.401 232.587 793.26 233.94 793.114 235.294 792.731 236.599 792.1 237.855 791.475 239.112 790.423 240.206 788.945 241.139 786.114 242.93 783.162 243.294 780.102 242.229 777.036 241.164 774.199 238.574 771.598 234.46 770.215 232.271 769.259 230.23 768.736 228.337 768.213 226.444 767.945 224.749 767.945 223.252 767.945 221.755 768.168 220.476 768.608 219.416 769.055 218.356 769.603 217.618 770.266 217.201 770.986 216.743 771.853 216.478 772.848 216.409 773.849 216.339 774.856 216.41 775.869 216.621 776.877 216.833 777.82 217.156 778.681 217.59 779.541 218.024 780.166 218.543 780.549 219.147 780.893 219.698 780.982 220.351 780.816 221.103 780.644 221.856 780.472 222.639 780.287 223.451 780.102 224.264 780.007 225.069 779.988 225.866 779.975 226.664 780.185 227.401 780.612 228.08 780.753 228.297 780.963 228.428 781.25 228.473 781.53 228.518 781.798 228.463 782.04 228.309 782.353 228.112 782.518 227.684 782.538 227.025 782.563 226.367 782.506 225.518 782.372 224.478 782.238 223.438 782.098 222.271 781.945 220.978 781.798 219.685 781.811 218.385 781.996 217.079 782.174 215.773 782.582 214.503 783.22 213.269 783.864 212.035 784.915 210.952 786.388 210.02 787.657 209.221 788.989 208.791 790.404 208.731 791.82 208.671 793.235 208.947 794.656 209.56 796.078 210.172 797.461 211.079 798.794 212.28 800.133 213.482 801.363 214.968 802.479 216.74Z" fill="#FFFFFF" fill-rule="evenodd" fill-opacity="1" transform="matrix(1 0 0 1.00055 28 15.5607)"/><path d="M817.211 244.797C817.874 246.059 818.104 247.252 817.906 248.377 817.708 249.502 817.001 250.381 815.802 251.015 815.267 251.296 814.54 251.58 813.616 251.866 812.691 252.152 811.678 252.469 810.575 252.817 809.472 253.164 808.267 253.587 806.954 254.087 805.641 254.587 804.257 255.223 802.791 255.995 800.732 257.078 798.909 258.277 797.321 259.594 795.734 260.91 794.223 261.949 792.776 262.709 791.756 263.246 790.627 263.313 789.384 262.91 788.141 262.507 787.057 261.422 786.127 259.655 785.445 258.359 784.922 257.065 784.565 255.774 784.201 254.482 783.997 253.274 783.94 252.15 783.889 251.025 783.997 250.02 784.272 249.134 784.546 248.248 785.049 247.613 785.776 247.23 786.356 246.924 787.096 246.62 787.995 246.316 788.887 246.012 789.882 245.683 790.972 245.329 792.062 244.976 793.165 244.588 794.274 244.167 795.383 243.746 796.448 243.268 797.461 242.734 798.475 242.2 799.317 241.663 799.999 241.122 800.674 240.582 801.267 240.067 801.784 239.576 802.294 239.086 802.842 238.578 803.422 238.053 803.996 237.527 804.614 237.093 805.265 236.752 806.144 236.286 807.139 236.224 808.248 236.568 809.357 236.911 810.46 237.484 811.563 238.287 812.666 239.09 813.718 240.064 814.719 241.209 815.72 242.354 816.555 243.55 817.211 244.797ZM830.038 232.635C830.58 233.652 830.892 234.695 830.988 235.763 831.083 236.831 830.988 237.871 830.707 238.882 830.433 239.893 829.968 240.814 829.324 241.644 828.673 242.476 827.851 243.154 826.85 243.681 825.83 244.219 824.785 244.52 823.714 244.583 822.643 244.648 821.623 244.505 820.66 244.155 819.698 243.806 818.811 243.285 818.008 242.594 817.198 241.902 816.529 241.048 815.994 240.032 815.458 239.01 815.133 237.974 815.018 236.924 814.904 235.874 814.98 234.856 815.254 233.87 815.522 232.884 815.987 231.974 816.631 231.14 817.281 230.306 818.123 229.617 819.156 229.072 820.169 228.539 821.196 228.241 822.235 228.178 823.28 228.116 824.287 228.245 825.269 228.567 826.257 228.889 827.163 229.391 827.991 230.074 828.82 230.757 829.502 231.611 830.038 232.635Z" fill="#FFFFFF" fill-rule="evenodd" fill-opacity="1" transform="matrix(1 0 0 1.00055 28 15.5607)"/><path d="M789.977 284.827C789.862 284.572 789.716 284.412 789.525 284.346 789.333 284.28 789.161 284.282 789.002 284.35 788.638 284.509 788.364 284.768 788.173 285.127 787.982 285.486 787.867 285.918 787.823 286.424 787.784 286.93 787.816 287.474 787.924 288.056 788.033 288.638 788.211 289.202 788.447 289.747 788.862 290.68 789.435 290.985 790.175 290.66 790.392 290.564 790.57 290.347 790.698 290.01 790.831 289.673 790.895 289.231 790.902 288.684 790.902 288.136 790.819 287.513 790.647 286.815 790.474 286.118 790.251 285.455 789.977 284.827ZM819.596 274.105C819.353 273.546 818.856 273.168 818.11 272.969 817.364 272.771 816.593 272.849 815.79 273.203 814.865 273.606 814.253 274.068 813.935 274.586 813.622 275.104 813.59 275.648 813.839 276.217 814.087 276.785 814.585 277.154 815.331 277.324 816.07 277.494 816.873 277.389 817.74 277.01 819.487 276.24 820.105 275.272 819.596 274.105ZM840.843 277.297C841.64 279.101 841.717 280.824 841.079 282.466 840.435 284.108 839.294 285.292 837.643 286.016 836.515 286.514 835.418 286.746 834.36 286.714 833.295 286.682 832.333 286.551 831.472 286.32 830.605 286.09 829.936 285.889 829.464 285.72 828.999 285.55 828.75 285.469 828.731 285.479 828.425 285.976 827.966 286.563 827.348 287.242 826.876 287.779 826.257 288.347 825.492 288.945 824.734 289.543 823.828 290.072 822.777 290.532 820.539 291.517 818.384 291.927 816.306 291.763 814.221 291.6 812.296 290.987 810.524 289.926 808.745 288.865 807.151 287.422 805.73 285.597 804.308 283.772 803.078 281.678 802.039 279.316 801.873 278.941 801.593 278.687 801.191 278.553 800.789 278.419 800.407 278.431 800.05 278.589 799.31 278.914 799.176 279.621 799.661 280.71 800.12 281.757 800.917 283.051 802.058 284.591 803.205 286.133 804.245 287.975 805.188 290.119 805.736 291.363 806.01 292.591 806.01 293.803 806.01 295.016 805.781 296.126 805.322 297.137 804.857 298.147 804.206 299.044 803.371 299.83 802.536 300.615 801.586 301.24 800.534 301.706 798.488 302.604 796.301 302.986 793.968 302.851 791.641 302.716 789.352 302.07 787.115 300.913 784.871 299.756 782.767 298.128 780.797 296.026 778.827 293.924 777.176 291.357 775.844 288.323 774.951 286.283 774.359 284.395 774.078 282.661 773.798 280.927 773.804 279.368 774.084 277.986 774.365 276.602 774.9 275.408 775.697 274.402 776.488 273.396 777.482 272.631 778.674 272.107 779.809 271.608 780.918 271.401 782.009 271.484 783.092 271.568 784.093 271.743 784.992 272.01 785.897 272.278 786.624 272.524 787.172 272.752 787.721 272.979 788.046 273.073 788.135 273.032 788.173 273.015 788.25 272.766 788.371 272.286 788.485 271.805 788.67 271.215 788.925 270.516 789.18 269.817 789.576 269.08 790.111 268.307 790.64 267.534 791.412 266.925 792.425 266.479 793.7 265.92 794.918 265.794 796.065 266.101 797.219 266.409 798.227 266.84 799.087 267.396 799.941 267.951 800.528 268.481 800.847 268.986 801.159 269.492 801.318 269.744 801.318 269.744 801.07 269.211 801.121 268.405 801.471 267.325 801.822 266.246 802.319 265.189 802.957 264.156 803.594 263.124 804.41 262.158 805.405 261.26 806.393 260.362 807.585 259.607 808.981 258.993 810.798 258.193 812.672 257.792 814.598 257.788 816.523 257.785 818.371 258.146 820.15 258.87 821.922 259.595 823.542 260.679 825.001 262.125 826.461 263.569 827.634 265.303 828.521 267.325 829.145 268.743 829.579 270.011 829.827 271.127 830.076 272.242 830.21 273.184 830.242 273.952 830.274 274.72 830.28 275.332 830.267 275.786 830.254 276.241 830.286 276.562 830.369 276.75 830.401 276.828 830.401 276.875 830.363 276.892 830.337 276.903 830.388 276.8 830.509 276.585 830.631 276.37 830.815 276.082 831.058 275.721 831.306 275.359 831.612 274.979 831.988 274.58 832.365 274.181 832.862 273.843 833.493 273.565 834.806 272.988 836.158 273.006 837.547 273.619 838.937 274.232 840.04 275.459 840.843 277.297Z" fill="#FFFFFF" fill-rule="evenodd" fill-opacity="1" transform="matrix(1 0 0 1.00055 28 15.5607)"/><path d="M846.613 315.267C847.601 318.236 847.658 320.91 846.791 323.29 845.924 325.67 844.203 327.289 841.621 328.147 840.378 328.56 839.262 328.842 838.262 328.992 837.261 329.142 836.323 329.237 835.444 329.278 834.57 329.318 833.754 329.377 833.015 329.453 832.269 329.529 831.491 329.704 830.675 329.975 829.273 330.442 828.17 330.874 827.379 331.27 826.589 331.666 825.971 332.009 825.531 332.302 825.084 332.594 824.689 332.874 824.332 333.14 823.975 333.407 823.554 333.621 823.076 333.781 822.241 334.058 821.368 333.93 820.456 333.397 819.544 332.864 818.665 332.129 817.81 331.19 816.956 330.25 816.172 329.161 815.458 327.92 814.744 326.68 814.177 325.413 813.743 324.12 813.189 322.45 813.189 321.102 813.743 320.076 814.298 319.05 815.241 318.315 816.574 317.872 817.575 317.538 818.709 317.288 819.984 317.121 821.253 316.954 822.547 316.799 823.86 316.657 825.174 316.515 826.417 316.364 827.59 316.206 828.769 316.048 829.866 315.8 830.886 315.46 831.963 315.102 832.626 314.754 832.881 314.416 833.13 314.078 833.2 313.734 833.085 313.385 832.97 313.049 832.722 312.713 832.326 312.377 831.938 312.042 831.434 311.764 830.815 311.545 830.191 311.326 829.502 311.21 828.744 311.197 827.985 311.184 827.175 311.321 826.308 311.607 824.058 312.358 821.948 313.012 819.984 313.571 818.015 314.13 816.325 314.445 814.904 314.515 813.488 314.585 812.29 314.358 811.314 313.832 810.345 313.306 809.644 312.401 809.217 311.114 808.86 310.047 808.618 308.902 808.49 307.679 808.356 306.456 808.337 305.275 808.433 304.137 808.522 302.999 808.771 301.963 809.185 301.032 809.593 300.1 810.192 299.503 810.977 299.241 811.506 299.066 812.022 298.951 812.526 298.895 813.029 298.84 813.635 298.75 814.349 298.627 815.069 298.504 815.892 298.342 816.829 298.14 817.759 297.938 818.894 297.614 820.233 297.17 821.304 296.814 822.311 296.36 823.261 295.811 824.205 295.261 825.135 294.696 826.053 294.114 826.965 293.533 827.826 292.984 828.629 292.466 829.432 291.948 830.235 291.556 831.039 291.289 831.784 291.04 832.651 291.18 833.627 291.708 834.609 292.236 835.546 292.938 836.432 293.815 837.324 294.693 838.166 295.718 838.956 296.893 839.747 298.068 840.34 299.246 840.729 300.427 841.022 301.298 841.105 302.091 840.977 302.807 840.856 303.524 840.62 304.154 840.27 304.698 839.919 305.243 839.505 305.718 839.026 306.124 838.548 306.53 838.236 306.695 838.089 306.619 838.376 306.439 838.95 306.59 839.811 307.074 840.671 307.558 841.526 308.192 842.367 308.978 843.202 309.764 844.012 310.682 844.789 311.732 845.567 312.783 846.173 313.961 846.613 315.267Z" fill="#FFFFFF" fill-rule="evenodd" fill-opacity="1" transform="matrix(1 0 0 1.00055 28 15.5607)"/><path d="M687.78 546.434C687.276 546.513 686.798 546.684 686.345 546.947 685.893 547.21 685.669 547.364 685.676 547.41 685.682 547.425 685.708 547.655 685.752 548.1 685.803 548.546 685.88 549.096 685.982 549.751 686.065 550.271 686.135 550.674 686.199 550.962 686.256 551.249 686.345 551.601 686.466 552.018 686.53 552.165 686.638 552.259 686.798 552.299 686.957 552.34 687.263 552.323 687.729 552.25 688.22 552.173 688.717 552.019 689.214 551.788 689.711 551.557 690.145 551.274 690.515 550.938 690.891 550.602 691.171 550.231 691.356 549.822 691.547 549.413 691.605 548.991 691.534 548.553 691.407 547.72 690.986 547.121 690.272 546.756 689.565 546.392 688.729 546.284 687.78 546.434ZM684.363 527.999C683.999 528.056 683.585 528.188 683.12 528.396 682.648 528.605 682.272 528.834 681.985 529.083 681.991 529.078 681.991 529.224 681.972 529.52 681.959 529.817 681.959 530.216 681.972 530.716 681.985 531.216 682.017 531.68 682.061 532.109 682.112 532.538 682.157 532.852 682.189 533.052 682.24 533.364 682.335 533.59 682.469 533.731 682.609 533.872 682.858 533.915 683.221 533.858 684.273 533.692 685.134 533.215 685.803 532.425 686.473 531.635 686.734 530.753 686.581 529.779 686.485 529.172 686.25 528.697 685.88 528.357 685.504 528.018 685 527.898 684.363 527.999ZM681.8 518.27C684.439 517.855 686.836 517.756 688.997 517.975 691.158 518.194 693.02 518.69 694.588 519.461 696.163 520.233 697.419 521.24 698.368 522.484 699.318 523.727 699.918 525.144 700.166 526.736 700.415 528.306 700.434 529.721 700.224 530.98 700.013 532.239 699.72 533.313 699.344 534.201 698.968 535.089 698.643 535.747 698.368 536.175 698.088 536.602 697.941 536.779 697.929 536.704 697.903 536.546 698.273 536.549 699.038 536.711 699.796 536.874 700.766 537.247 701.938 537.828 703.112 538.41 704.24 539.314 705.33 540.538 706.414 541.763 707.121 543.448 707.459 545.594 707.804 547.756 707.619 549.861 706.905 551.909 706.191 553.957 705.094 555.813 703.615 557.476 702.13 559.139 700.351 560.544 698.279 561.688 696.201 562.833 693.951 563.597 691.515 563.981 689.118 564.358 686.951 564.523 685.013 564.477 683.075 564.431 681.379 564.255 679.926 563.948 678.472 563.642 677.286 563.272 676.356 562.839 675.431 562.405 674.838 561.984 674.571 561.574 674.08 560.888 673.589 559.881 673.085 558.553 672.588 557.225 672.097 555.714 671.619 554.019 671.141 552.324 670.669 550.442 670.216 548.376 669.757 546.309 669.362 544.194 669.018 542.031 668.68 539.873 668.4 537.766 668.189 535.712 667.973 533.658 667.851 531.796 667.826 530.125 667.8 528.455 667.883 526.998 668.087 525.757 668.285 524.515 668.725 523.602 669.413 523.017 670.491 522.133 672.104 521.233 674.258 520.319 676.413 519.406 678.931 518.722 681.8 518.27Z" fill="#FFFFFF" fill-rule="evenodd" fill-opacity="1" transform="matrix(1 0 0 1.00055 28 15.5607)"/><path d="M705.285 520.41C708.664 518.367 711.367 519.017 713.388 522.364 714.198 523.701 714.848 524.982 715.339 526.208 715.836 527.434 716.308 528.672 716.773 529.921 717.232 531.17 717.653 532.295 718.029 533.297 718.405 534.298 718.89 535.287 719.482 536.263 719.795 536.789 720.126 537.115 720.477 537.242 720.821 537.37 721.127 537.354 721.382 537.198 722.128 536.748 722.549 535.791 722.645 534.327 722.746 532.863 722.064 530.923 720.604 528.508 720.235 527.9 719.846 527.372 719.432 526.924 719.011 526.476 718.596 526.031 718.182 525.589 717.768 525.146 717.34 524.698 716.913 524.244 716.486 523.789 716.085 523.244 715.696 522.608 715.313 521.972 715.237 521.191 715.466 520.266 715.689 519.343 716.136 518.39 716.805 517.41 717.474 516.43 718.31 515.453 719.323 514.48 720.337 513.506 721.503 512.622 722.817 511.828 724.257 510.958 725.654 510.609 727.011 510.785 728.369 510.96 729.517 511.828 730.46 513.39 731.072 514.399 731.589 515.519 732.009 516.749 732.43 517.98 732.832 519.177 733.214 520.342 733.597 521.508 733.998 522.657 734.406 523.792 734.814 524.926 735.356 526.048 736.026 527.16 736.618 528.135 737.167 528.831 737.67 529.246 738.18 529.662 738.646 529.986 739.06 530.218 739.474 530.449 739.908 530.682 740.361 530.918 740.813 531.154 741.221 531.564 741.572 532.149 741.999 532.85 742.05 533.766 741.738 534.898 741.425 536.031 740.934 537.186 740.271 538.363 739.608 539.541 738.831 540.645 737.925 541.674 737.02 542.704 736.096 543.505 735.152 544.076 734.164 544.669 733.221 544.871 732.303 544.681 731.391 544.491 730.588 544.197 729.906 543.8 729.224 543.403 728.701 543.058 728.35 542.764 727.993 542.47 727.859 542.298 727.936 542.25 727.955 542.24 727.91 542.519 727.795 543.089 727.681 543.659 727.426 544.42 727.024 545.372 726.629 546.323 726.049 547.331 725.277 548.395 724.512 549.458 723.435 550.408 722.052 551.244 720.84 551.977 719.572 552.471 718.246 552.727 716.92 552.983 715.6 552.999 714.293 552.776 712.986 552.553 711.775 552.089 710.659 551.384 709.544 550.678 708.613 549.714 707.874 548.489 707.083 547.185 706.484 546.086 706.07 545.19 705.649 544.294 705.33 543.518 705.107 542.86 704.884 542.203 704.635 541.551 704.374 540.907 704.106 540.263 703.768 539.602 703.36 538.926 702.589 537.641 701.684 536.554 700.644 535.666 699.612 534.776 698.802 533.846 698.215 532.874 697.788 532.164 697.712 531.237 697.999 530.092 698.279 528.947 698.764 527.779 699.446 526.586 700.128 525.392 700.989 524.237 702.021 523.12 703.054 522.003 704.144 521.099 705.285 520.41Z" fill="#FFFFFF" fill-rule="evenodd" fill-opacity="1" transform="matrix(1 0 0 1.00055 28 15.5607)"/><path d="M736.689 500.514C737.811 499.637 738.945 499.199 740.086 499.198 741.228 499.196 742.216 499.732 743.057 500.805 743.427 501.281 743.835 501.948 744.275 502.805 744.721 503.663 745.212 504.604 745.747 505.63 746.283 506.656 746.914 507.77 747.635 508.972 748.361 510.174 749.228 511.429 750.248 512.736 751.676 514.569 753.181 516.15 754.755 517.481 756.33 518.812 757.618 520.12 758.619 521.407 759.333 522.316 759.594 523.418 759.415 524.712 759.237 526.005 758.364 527.265 756.789 528.493 755.635 529.393 754.449 530.133 753.245 530.715 752.033 531.296 750.879 531.713 749.783 531.964 748.686 532.216 747.679 532.284 746.755 532.17 745.837 532.056 745.123 531.674 744.619 531.025 744.218 530.508 743.784 529.835 743.325 529.006 742.872 528.177 742.375 527.257 741.833 526.247 741.291 525.236 740.718 524.221 740.106 523.203 739.494 522.184 738.837 521.222 738.136 520.317 737.428 519.413 736.752 518.676 736.102 518.104 735.452 517.533 734.84 517.037 734.266 516.619 733.692 516.2 733.093 515.753 732.475 515.276 731.856 514.799 731.321 514.271 730.868 513.692 730.256 512.904 730.02 511.935 730.161 510.785 730.307 509.635 730.677 508.446 731.27 507.22 731.869 505.993 732.641 504.786 733.59 503.597 734.54 502.408 735.573 501.381 736.689 500.514ZM722.453 490.026C723.359 489.319 724.334 488.825 725.367 488.544 726.399 488.263 727.438 488.17 728.484 488.267 729.529 488.364 730.518 488.657 731.448 489.147 732.379 489.636 733.195 490.327 733.89 491.219 734.598 492.128 735.076 493.105 735.331 494.149 735.579 495.192 735.618 496.219 735.445 497.229 735.273 498.239 734.916 499.202 734.374 500.117 733.839 501.032 733.112 501.842 732.207 502.548 731.295 503.257 730.333 503.761 729.319 504.058 728.305 504.356 727.292 504.458 726.272 504.364 725.258 504.271 724.276 503.979 723.346 503.487 722.409 502.995 721.58 502.288 720.866 501.366 720.158 500.464 719.687 499.506 719.438 498.492 719.196 497.479 719.145 496.46 719.291 495.436 719.432 494.412 719.769 493.433 720.292 492.497 720.821 491.561 721.542 490.737 722.453 490.026Z" fill="#FFFFFF" fill-rule="evenodd" fill-opacity="1" transform="matrix(1 0 0 1.00055 28 15.5607)"/><path d="M740.718 476.162C743.108 474.056 745.499 474.359 747.883 477.071 748.878 478.194 750.006 479.629 751.281 481.377 752.556 483.124 753.914 485.006 755.355 487.025 756.795 489.044 758.364 491.157 760.059 493.366 761.749 495.574 763.648 497.868 765.746 500.249 766.428 501.029 767.123 501.65 767.83 502.112 768.532 502.574 769.227 502.97 769.915 503.299 770.597 503.628 771.247 503.954 771.859 504.276 772.465 504.599 772.994 505.016 773.447 505.527 773.963 506.111 774.269 506.911 774.371 507.926 774.48 508.94 774.346 510.062 773.982 511.29 773.613 512.519 773.013 513.79 772.185 515.105 771.356 516.42 770.227 517.706 768.799 518.963 766.377 521.097 764.165 521.032 762.169 518.767 760.652 517.041 758.982 514.825 757.171 512.121 755.355 509.417 753.2 506.646 750.701 503.809 749.19 502.089 747.698 500.554 746.232 499.203 744.759 497.852 743.37 496.639 742.05 495.563 740.73 494.488 739.576 493.551 738.588 492.75 737.6 491.95 736.803 491.203 736.191 490.509 735.567 489.803 735.267 488.811 735.28 487.533 735.299 486.255 735.548 484.929 736.026 483.555 736.51 482.181 737.148 480.835 737.951 479.519 738.748 478.202 739.672 477.083 740.718 476.162Z" fill="#FFFFFF" fill-rule="evenodd" fill-opacity="1" transform="matrix(1 0 0 1.00055 28 15.5607)"/><path d="M777.699 480.077C777.463 480.317 777.304 480.665 777.227 481.124 777.144 481.582 777.151 482.084 777.253 482.631 777.355 483.178 777.546 483.741 777.839 484.319 778.126 484.897 778.521 485.431 779.025 485.923 779.765 486.643 780.51 487.043 781.256 487.12 782.002 487.198 782.659 486.948 783.226 486.371 783.755 485.825 783.978 485.086 783.876 484.156 783.774 483.226 783.239 482.285 782.263 481.333 781.103 480.194 780.16 479.586 779.446 479.51 778.725 479.433 778.145 479.622 777.699 480.077ZM765.829 450.909C768.321 448.356 770.967 448.446 773.766 451.18 774.907 452.293 776.201 453.713 777.654 455.439 779.108 457.165 780.606 458.973 782.142 460.861 783.679 462.75 785.241 464.616 786.828 466.458 788.415 468.3 790.028 470.023 791.667 471.624 792.916 472.844 793.981 473.685 794.854 474.147 795.734 474.609 796.512 474.916 797.187 475.066 797.863 475.217 798.488 475.339 799.055 475.432 799.616 475.525 800.152 475.815 800.649 476.302 801.216 476.858 801.541 477.718 801.618 478.882 801.701 480.046 801.631 481.26 801.414 482.526 801.191 483.792 800.821 485.057 800.298 486.319 799.782 487.582 799.132 488.609 798.36 489.401 797.812 489.96 797.245 490.288 796.646 490.385 796.053 490.482 795.511 490.494 795.026 490.422 794.542 490.348 794.153 490.303 793.86 490.283 793.573 490.264 793.388 490.29 793.324 490.359 793.177 490.508 793.063 490.818 792.974 491.291 792.884 491.764 792.693 492.422 792.4 493.262 792.113 494.104 791.667 495.051 791.067 496.104 790.474 497.158 789.576 498.297 788.377 499.521 787.045 500.884 785.508 501.835 783.762 502.374 782.021 502.914 780.224 503.091 778.375 502.907 776.52 502.722 774.715 502.214 772.95 501.38 771.184 500.547 769.59 499.432 768.162 498.037 766.103 496.02 764.617 493.865 763.712 491.576 762.807 489.286 762.316 487.046 762.246 484.856 762.176 482.667 762.476 480.637 763.145 478.768 763.821 476.898 764.713 475.396 765.822 474.26 766.555 473.508 767.276 472.901 767.984 472.44 768.691 471.979 769.322 471.629 769.87 471.389 770.425 471.149 770.878 470.962 771.241 470.828 771.604 470.694 771.828 470.583 771.91 470.495 772.057 470.343 771.872 470.015 771.356 469.51 770.648 468.816 769.851 468.195 768.965 467.647 768.073 467.099 767.244 466.623 766.473 466.22 765.701 465.817 764.898 465.392 764.063 464.945 763.228 464.498 762.571 464.041 762.093 463.573 761.577 463.069 761.373 462.253 761.481 461.124 761.583 459.996 761.832 458.816 762.214 457.584 762.597 456.352 763.113 455.119 763.763 453.883 764.407 452.647 765.096 451.655 765.829 450.909Z" fill="#FFFFFF" fill-rule="evenodd" fill-opacity="1" transform="matrix(1 0 0 1.00055 28 15.5607)"/><path d="M446.079 434.273C446.403 434.819 446.43 435.477 446.161 436.248 445.893 437.018 445.444 437.8 444.814 438.594 444.185 439.387 443.421 440.192 442.524 441.007 441.627 441.822 440.664 442.535 439.635 443.147 438.688 443.71 437.774 444.045 436.893 444.151 436.012 444.258 435.215 444.213 434.502 444.014 433.789 443.816 433.139 443.522 432.551 443.133 431.964 442.743 431.423 442.315 430.929 441.849 430.344 441.362 429.842 440.903 429.423 440.474 429.004 440.045 428.613 439.727 428.251 439.522 427.89 439.318 427.517 439.225 427.134 439.246 426.751 439.266 426.272 439.447 425.698 439.788 424.646 440.414 423.6 441.071 422.56 441.759 421.519 442.448 420.454 443.165 419.363 443.911 418.273 444.657 417.26 445.393 416.325 446.119 415.39 446.846 414.536 447.521 413.761 448.146 412.702 449.1 411.858 449.967 411.23 450.746 410.602 451.526 409.868 452.166 409.028 452.665 408.391 453.044 407.615 453.089 406.698 452.802 405.781 452.514 404.867 452.042 403.956 451.386 403.046 450.73 402.129 449.903 401.206 448.905 400.282 447.907 399.47 446.818 398.768 445.637 398.076 444.473 397.622 443.397 397.407 442.408 397.191 441.42 397.151 440.521 397.287 439.712 397.423 438.902 397.702 438.217 398.126 437.656 398.55 437.096 399.024 436.659 399.549 436.347 400.034 436.06 400.893 435.662 402.125 435.156 403.358 434.649 404.776 434.054 406.382 433.37 407.987 432.685 409.68 431.925 411.459 431.087 413.239 430.249 414.936 429.351 416.55 428.392 417.877 427.603 418.804 426.932 419.332 426.378 419.861 425.824 420.046 425.414 419.887 425.147 419.498 424.493 419.043 423.881 418.523 423.308 418.002 422.736 417.431 422.13 416.812 421.49 416.191 420.85 415.661 420.326 415.22 419.917 414.78 419.509 414.445 419.113 414.217 418.728 413.742 417.93 413.665 417.087 413.985 416.201 414.305 415.315 415.081 414.506 416.314 413.773 417.895 412.833 419.412 412.069 420.867 411.48 422.321 410.892 423.683 410.506 424.953 410.323 426.223 410.141 427.363 410.213 428.373 410.54 429.383 410.868 430.183 411.527 430.773 412.52 431.632 413.965 432.412 415.443 433.112 416.954 433.814 418.466 434.766 420.234 435.97 422.26 437.129 424.21 438.24 425.833 439.304 427.129 440.367 428.425 441.337 429.507 442.211 430.375 443.087 431.243 443.871 431.976 444.564 432.575 445.256 433.174 445.762 433.74 446.079 434.273Z" fill="#FFFFFF" fill-rule="evenodd" fill-opacity="1" transform="matrix(1 0 0 1.00055 28 15.5607)"/><path d="M440.823 459.493C440.386 459.016 439.873 458.603 439.283 458.253 438.693 457.904 438.124 457.651 437.576 457.495 437.028 457.339 436.534 457.288 436.097 457.341 435.66 457.394 435.336 457.517 435.126 457.709 435.049 457.779 435.003 457.863 434.989 457.958 434.973 458.053 435.011 458.151 435.102 458.25 435.479 458.661 436.001 459.085 436.667 459.52 437.333 459.954 438.003 460.344 438.674 460.687 439.346 461.032 439.921 461.262 440.4 461.38 440.878 461.498 441.14 461.537 441.186 461.495 441.381 461.317 441.465 461.044 441.441 460.677 441.416 460.31 441.21 459.915 440.823 459.493ZM447.624 452.572C449.16 454.248 450.315 455.972 451.09 457.743 451.865 459.514 452.271 461.23 452.309 462.889 452.347 464.549 452.047 466.125 451.411 467.62 450.775 469.114 449.837 470.429 448.596 471.565 447.495 472.574 446.268 473.04 444.916 472.964 443.563 472.889 442.22 472.532 440.886 471.894 439.552 471.256 438.265 470.493 437.025 469.606 435.785 468.719 434.625 467.875 433.544 467.073 432.463 466.272 431.589 465.679 430.924 465.296 430.258 464.913 429.869 464.772 429.758 464.874 429.437 465.167 429.298 465.633 429.341 466.269 429.384 466.906 429.915 467.782 430.935 468.896 431.593 469.614 432.328 470.156 433.142 470.523 433.955 470.891 434.769 471.175 435.584 471.376 436.399 471.576 437.171 471.766 437.897 471.945 438.625 472.124 439.166 472.408 439.522 472.796 439.963 473.367 440.232 474.051 440.329 474.85 440.426 475.648 440.424 476.479 440.322 477.343 440.22 478.207 440.012 479.034 439.698 479.825 439.384 480.616 438.968 481.249 438.45 481.724 437.834 482.288 436.877 482.591 435.581 482.634 434.283 482.677 432.867 482.463 431.33 481.99 429.793 481.517 428.182 480.781 426.498 479.781 424.813 478.781 423.227 477.47 421.741 475.848 420.074 474.026 418.79 472.058 417.891 469.943 416.992 467.827 416.528 465.668 416.499 463.466 416.47 461.264 416.907 459.122 417.809 457.04 418.711 454.958 420.125 453.035 422.052 451.27 423.992 449.494 426.074 448.206 428.3 447.41 430.525 446.612 432.786 446.272 435.083 446.388 437.379 446.504 439.606 447.086 441.763 448.134 443.92 449.182 445.874 450.661 447.624 452.572Z" fill="#FFFFFF" fill-rule="evenodd" fill-opacity="1" transform="matrix(1 0 0 1.00055 28 15.5607)"/><path d="M470.001 473.899C471.576 475.291 472.792 476.691 473.65 478.1 474.508 479.51 475.102 480.825 475.432 482.045 475.762 483.265 475.874 484.365 475.767 485.343 475.66 486.323 475.418 487.025 475.04 487.452 474.583 487.97 473.926 488.396 473.07 488.73 472.213 489.065 471.329 489.316 470.417 489.481 469.505 489.647 468.61 489.698 467.734 489.632 466.857 489.566 466.176 489.319 465.69 488.889 465.228 488.481 464.983 487.923 464.956 487.216 464.93 486.508 464.908 485.781 464.892 485.035 464.876 484.288 464.817 483.614 464.715 483.012 464.613 482.41 464.365 481.935 463.973 481.589 463.759 481.4 463.539 481.316 463.313 481.339 463.086 481.362 462.9 481.455 462.755 481.619 462.422 481.997 462.333 482.53 462.49 483.22 462.648 483.909 462.951 484.76 463.399 485.772 463.848 486.784 464.326 487.905 464.834 489.136 465.341 490.368 465.715 491.653 465.956 492.991 466.196 494.331 466.19 495.692 465.938 497.074 465.685 498.457 464.982 499.801 463.827 501.109 461.608 503.621 458.878 504.794 455.637 504.628 452.397 504.463 448.952 502.769 445.303 499.546 443.362 497.831 441.875 496.139 440.843 494.468 439.809 492.797 439.083 491.243 438.664 489.806 438.245 488.368 438.1 487.079 438.229 485.938 438.358 484.796 438.681 483.933 439.197 483.349 439.765 482.706 440.518 482.211 441.458 481.865 442.398 481.518 443.383 481.305 444.414 481.226 445.445 481.145 446.436 481.194 447.385 481.369 448.335 481.545 449.077 481.87 449.612 482.343 450.102 482.775 450.37 483.376 450.418 484.146 450.465 484.916 450.515 485.716 450.566 486.548 450.618 487.38 450.749 488.18 450.958 488.949 451.168 489.719 451.573 490.369 452.175 490.9 452.367 491.071 452.607 491.138 452.893 491.1 453.18 491.063 453.419 490.937 453.609 490.721 453.853 490.445 453.894 489.988 453.729 489.349 453.565 488.711 453.274 487.911 452.855 486.951 452.437 485.989 451.975 484.909 451.469 483.71 450.964 482.51 450.616 481.258 450.424 479.953 450.232 478.648 450.271 477.314 450.538 475.95 450.807 474.587 451.518 473.253 452.672 471.946 453.662 470.825 454.827 470.038 456.166 469.586 457.506 469.133 458.945 469.002 460.481 469.192 462.018 469.383 463.596 469.868 465.215 470.648 466.834 471.427 468.429 472.511 470.001 473.899Z" fill="#FFFFFF" fill-rule="evenodd" fill-opacity="1" transform="matrix(1 0 0 1.00055 28 15.5607)"/><path d="M502.693 481.615C503.928 482.545 504.611 483.481 504.744 484.422 504.876 485.364 504.567 486.333 503.817 487.33 502.986 488.433 501.903 489.641 500.571 490.951 499.238 492.262 497.989 493.69 496.827 495.234 496.571 495.573 496.562 495.832 496.8 496.011 497.367 496.438 498.025 496.841 498.776 497.221 499.527 497.6 500.112 497.947 500.531 498.263 501.081 498.677 501.352 499.168 501.345 499.736 501.338 500.304 501.175 500.799 500.857 501.222 499.245 503.361 497.543 504.957 495.748 506.01 493.953 507.062 492.325 507.293 490.861 506.7 490.389 506.48 490.009 506.351 489.721 506.313 489.434 506.274 489.122 506.339 488.786 506.506 488.451 506.673 488.061 507.003 487.619 507.497 487.176 507.99 486.56 508.761 485.769 509.811 484.599 511.365 483.736 512.596 483.179 513.505 482.623 514.413 482.209 515.161 481.939 515.749 481.669 516.337 481.43 516.87 481.221 517.35 481.012 517.828 480.708 518.333 480.307 518.865 479.839 519.487 479.084 519.932 478.041 520.198 476.998 520.465 475.813 520.517 474.486 520.355 473.158 520.192 471.705 519.791 470.125 519.151 468.545 518.511 466.951 517.586 465.344 516.375 464.236 515.541 463.55 514.639 463.285 513.67 463.021 512.701 463.311 511.656 464.157 510.533 465.413 508.865 467.122 506.931 469.284 504.731 471.447 502.53 473.78 499.767 476.284 496.443 476.463 496.205 476.502 496.048 476.4 495.971 476.202 495.822 475.778 495.649 475.128 495.452 474.479 495.256 473.93 494.989 473.483 494.652 473.049 494.325 472.774 493.917 472.659 493.426 472.544 492.935 472.715 492.388 473.17 491.783 473.705 491.073 474.422 490.318 475.324 489.522 476.225 488.724 477.187 488.032 478.208 487.447 479.231 486.86 480.25 486.435 481.264 486.172 482.279 485.909 483.163 486.061 483.915 486.627 484.051 486.73 484.183 486.696 484.311 486.527 484.721 485.982 485.03 485.418 485.24 484.835 485.45 484.251 485.62 483.68 485.751 483.123 485.881 482.566 486.022 482.02 486.171 481.487 486.32 480.953 486.576 480.446 486.937 479.965 487.511 479.204 488.502 478.733 489.912 478.55 491.321 478.368 492.805 478.4 494.362 478.647 495.92 478.894 497.464 479.274 498.994 479.788 500.523 480.301 501.756 480.91 502.693 481.615Z" fill="#FFFFFF" fill-rule="evenodd" fill-opacity="1" transform="matrix(1 0 0 1.00055 28 15.5607)"/></g></g></g></g></g></g></g></svg>